<svg width="193" height="163" viewBox="0 0 193 163" fill="none" xmlns="http://www.w3.org/2000/svg">
<g clip-path="url(#clip0_19_2544)">
<path d="M119.548 73.8465C129.431 90.6513 139.325 107.476 149.49 124.76C154.831 115.243 159.961 106.094 165.357 96.4766C174.688 118.89 183.814 140.809 193 162.864C149.269 162.864 105.939 162.864 62.6049 162.864C62.5748 162.748 62.5446 162.632 62.5145 162.516C65.1749 161.431 67.8504 160.382 70.4957 159.253C78.8283 155.697 86.8949 151.667 93.832 145.691C94.6553 144.98 95.4584 144.243 96.2264 143.472C104.378 135.251 105.352 126.152 98.5656 116.706C95.4584 112.384 91.5481 108.641 87.9691 104.667C86.8497 103.426 85.4994 102.377 84.4754 101.071C82.4375 98.4788 82.3672 96.2446 84.9473 94.2423C88.2201 91.7054 91.8342 89.5468 95.5086 87.6253C100.312 85.1136 105.452 83.2324 110.196 80.6199C113.459 78.8244 116.29 76.2472 119.548 73.8465Z" fill="#62B1B8"/>
<path d="M0 162.839C12.0923 138.69 24.019 114.87 36.1364 90.6564C42.7171 98.2267 49.0619 105.525 55.6577 113.11C56.6466 111.335 57.51 109.842 58.3181 108.329C69.9336 86.4855 81.559 64.6422 93.1193 42.7636C93.6714 41.7146 93.9124 40.3831 93.9174 39.1777C93.9776 27.497 93.9425 15.8163 93.9575 4.13564C93.9626 0.105906 95.865 -1.03896 99.3687 0.943123C105.633 4.48868 111.868 8.07964 118.087 11.7059C121.104 13.4661 121.164 15.7608 118.258 17.6723C112.661 21.3541 106.994 24.9248 101.457 28.6873C100.619 29.2572 99.9811 30.5786 99.8305 31.6377C99.0023 37.4276 100.553 42.4963 103.891 47.4086C107.982 53.4255 111.29 59.977 115.095 66.2006C116.054 67.7691 115.959 68.9191 114.643 69.8571C111.325 72.2326 108.058 74.7493 104.494 76.691C100.172 79.0463 95.5086 80.7662 91.0913 82.955C88.3305 84.3218 85.6049 85.855 83.1051 87.6556C75.2694 93.2992 74.8528 100.562 81.79 107.355C84.7817 110.286 87.8788 113.13 90.6044 116.292C92.4968 118.486 94.0579 121.043 95.3831 123.636C97.8628 128.493 97.386 133.294 93.3702 137.026C89.716 140.42 85.7705 143.643 81.5139 146.21C69.1053 153.685 55.5473 158.491 41.7483 162.647C41.0405 162.859 40.2725 162.965 39.5296 162.97C26.8199 162.995 14.1052 162.995 1.39546 163C1.0742 163 0.757965 162.929 0 162.839ZM111.827 14.8833C107.596 12.4624 103.886 10.3391 99.9711 8.09981C99.9711 13.0323 99.9711 17.5664 99.9711 22.5695C104.017 19.9469 107.686 17.5664 111.827 14.8833Z" fill="#62B1B8"/>
</g>
<defs>
<clipPath id="clip0_19_2544">
<rect width="193" height="163" fill="white"/>
</clipPath>
</defs>
</svg>
