<svg width="59" height="22" viewBox="0 0 59 22" fill="none" xmlns="http://www.w3.org/2000/svg">
<path d="M13.9872 0.00415474C16.6827 0.0361686 19.3782 0.1082 21.9691 0.946276C22.6662 1.17152 23.2987 1.58427 23.9958 1.80951C24.7987 2.0679 25.6298 2.28857 26.4668 2.39261C28.7826 2.68074 31.1066 2.70818 33.4107 2.284C34.0279 2.1708 34.6568 1.97529 35.2081 1.68717C36.801 0.857094 38.5091 0.408901 40.2818 0.269412C42.3437 0.107056 44.4197 0.00644144 46.4875 0.0327385C48.6423 0.0601789 50.7665 0.415761 52.7014 1.4242C55.6732 2.97229 57.1203 5.44079 56.9922 8.68562C56.8441 12.4507 55.7179 15.9505 53.4855 19.0615C52.2606 20.7686 50.4714 21.6192 48.3907 21.8319C45.8163 22.0948 43.243 22.0114 40.6744 21.6432C37.3265 21.1642 35.02 19.392 33.7387 16.3861C33.145 14.9935 32.7148 13.5357 32.2117 12.1077C32.1682 11.983 32.1294 11.8561 32.0894 11.7304C31.4875 9.85298 30.5236 9.51798 28.524 9.87585C27.8139 10.0028 27.3825 10.5321 27.1521 11.1667C26.7336 12.3215 26.3657 13.4934 25.9648 14.6551C25.4722 16.082 24.8539 17.4517 23.9005 18.6522C22.5945 20.2986 20.8324 21.1996 18.7575 21.5552C15.774 22.0663 12.774 22.1714 9.77987 21.6889C7.7885 21.3665 6.22737 20.2826 5.17996 18.6362C3.1639 15.4691 1.98717 12.0196 2.00011 8.26486C2.01186 4.75821 4.05849 2.1022 7.48403 0.913119C9.59296 0.179087 11.7689 -0.0335758 13.9872 0.00415474ZM46.0702 19.6595C46.0737 19.608 46.0772 19.5566 46.0819 19.5051C46.4146 19.5051 46.7461 19.504 47.0788 19.5051C49.5557 19.5189 51.3202 18.4281 52.3864 16.2603C53.4867 14.0239 54.2825 11.6869 54.4965 9.2127C54.667 7.23699 54.1908 5.41792 52.4593 4.14537C50.9616 3.04547 49.1913 2.635 47.3656 2.54125C45.7304 2.45664 44.087 2.48294 42.4495 2.53439C40.6744 2.58927 38.9182 2.81222 37.2406 3.43764C35.3104 4.15681 34.2136 5.71176 34.1983 7.73321C34.1772 10.6156 35.0624 13.2865 36.2555 15.8704C37.1066 17.7112 38.609 18.8386 40.6638 19.1267C42.4542 19.3771 44.2669 19.488 46.0702 19.6595ZM13.812 19.5943C15.1897 19.4708 16.6368 19.408 18.0628 19.1987C20.1987 18.8855 21.8457 17.8267 22.7426 15.8533C23.1741 14.9032 23.5773 13.9336 23.8958 12.9423C24.4483 11.2227 24.8856 9.47567 24.7975 7.64517C24.7105 5.84896 23.9452 4.45865 22.2418 3.66859C21.6141 3.37704 20.9429 3.10492 20.2634 3.00545C18.7246 2.78021 17.1705 2.64987 15.62 2.51381C13.5287 2.33087 11.4409 2.38804 9.39547 2.88311C7.71091 3.29015 6.18388 4.0036 5.26577 5.53912C4.48991 6.83568 4.35355 8.24543 4.56515 9.72264C4.92722 12.2449 5.67839 14.6379 6.96209 16.8571C7.78262 18.2749 9.01577 19.1953 10.705 19.4C11.7089 19.5223 12.7293 19.5303 13.812 19.5943ZM26.8606 4.9823C27.0334 5.8604 27.2085 6.7545 27.3872 7.66689C28.8214 7.18325 30.2332 7.23471 31.6051 7.63717C31.7873 6.71448 31.9601 5.83524 32.1282 4.9823C30.3684 4.9823 28.5992 4.9823 26.8606 4.9823Z" fill="#62B1B8"/>
<path d="M1.99524 3.44074C1.99524 3.9119 2.00766 4.38306 1.99237 4.85303C1.97134 5.45763 1.6425 5.90163 1.18749 5.98311C0.640705 6.07876 0.10348 5.76465 0.0575961 5.13053C-0.019833 4.04769 -0.0188771 2.94242 0.0585521 1.85958C0.10348 1.22546 0.622543 0.926703 1.18844 1.01527C1.65684 1.08848 1.97803 1.562 1.98663 2.20438C1.99237 2.6165 1.98759 3.02862 1.98759 3.44074C1.99046 3.44074 1.99333 3.44074 1.99524 3.44074Z" fill="#62B1B8"/>
<path d="M57.0048 3.5118C57.0048 3.06041 56.9923 2.60783 57.0077 2.15762C57.0287 1.52543 57.3681 1.07994 57.8532 1.01141C58.3901 0.935781 58.8963 1.23829 58.9404 1.8563C59.0171 2.93988 59.0209 4.04237 58.9452 5.12595C58.9001 5.76996 58.393 6.0701 57.8225 5.9862C57.3509 5.91766 57.023 5.44618 57.0134 4.8069C57.0067 4.3756 57.0124 3.94311 57.0124 3.5118C57.0105 3.5118 57.0077 3.5118 57.0048 3.5118Z" fill="#62B1B8"/>
</svg>
