<svg width="31" height="38" viewBox="0 0 31 38" fill="none" xmlns="http://www.w3.org/2000/svg">
<g clip-path="url(#clip0_12_679)">
<path d="M7.16217 19.1391C6.41013 19.4691 5.63648 19.2212 4.86823 19.334C4.88564 19.3949 4.89224 19.463 4.92345 19.5173C5.28957 20.1561 5.83935 20.5511 6.57038 20.5644C8.20051 20.5934 9.83124 20.5741 11.4614 20.5734C11.4902 20.5734 11.519 20.5614 11.591 20.5457C11.591 20.2954 11.5892 20.0372 11.5916 19.7797C11.5988 19.0071 12.0838 18.5101 12.8436 18.5076C14.2139 18.5034 15.5841 18.5034 16.9543 18.5082C17.695 18.5107 18.1913 19.0149 18.1997 19.761C18.2039 20.173 18.2045 20.5855 18.1991 20.9975C18.1895 21.7424 17.6848 22.2502 16.9513 22.2514C15.5811 22.2538 14.2108 22.2508 12.8406 22.2526C12.2914 22.2532 11.8959 22.0041 11.6888 21.4993C11.6102 21.3081 11.5082 21.2785 11.3311 21.2791C9.89066 21.2852 8.45019 21.2707 7.01033 21.2864C5.64849 21.3009 4.65937 20.7556 4.1294 19.457C4.09999 19.3852 3.99675 19.3135 3.91693 19.2978C2.72674 19.0625 2.07553 18.2772 2.07493 17.0601C2.07433 15.2108 2.07373 13.3609 2.07493 11.5116C2.07553 10.5092 2.54068 9.81617 3.44818 9.41145C3.55921 9.36199 3.65824 9.2106 3.69846 9.08575C4.52192 6.54586 5.92998 4.40345 7.98984 2.70798C12.8064 -1.25535 19.7632 -0.822288 24.1032 3.70078C25.5869 5.24666 26.6529 7.04165 27.2993 9.08695C27.3581 9.27273 27.4415 9.3831 27.6312 9.46393C28.4696 9.82099 28.9168 10.4814 28.9264 11.3886C28.9462 13.3283 28.942 15.2687 28.9294 17.2084C28.9216 18.39 28.0255 19.2869 26.8545 19.3062C26.0845 19.3189 25.3138 19.3177 24.5444 19.3026C24.3211 19.2984 24.099 19.226 23.9154 19.1922C23.2162 20.0475 22.5049 20.9178 21.8111 21.7653C22.242 21.8226 22.7486 21.86 23.2426 21.9607C26.369 22.5982 28.7944 24.2105 30.2456 27.1346C30.7474 28.1455 30.9941 29.2323 30.9965 30.3657C31.0019 32.7276 31.0019 35.0902 30.9917 37.4522C30.9911 37.6186 30.9418 37.8382 30.8308 37.9395C30.6418 38.1126 30.3164 37.8792 30.3164 37.5933C30.3164 35.4219 30.2918 33.2506 30.3206 31.0798C30.3711 27.3179 28.5147 24.8245 25.2286 23.2822C23.8644 22.6417 22.4017 22.4306 20.9036 22.4619C20.7914 22.4643 20.6701 22.5114 20.5711 22.5687C17.2046 24.5259 13.8369 24.5289 10.465 22.5832C10.3642 22.5253 10.2466 22.4649 10.1355 22.4631C7.34043 22.4173 4.87004 23.2442 2.88159 25.2781C1.42192 26.7715 0.683085 28.5791 0.689687 30.6866C0.696889 32.9279 0.691487 35.1698 0.690887 37.4111C0.690887 37.5113 0.722697 37.6391 0.674682 37.7061C0.591255 37.8213 0.461013 37.9624 0.341574 37.9721C0.241342 37.9799 0.104498 37.8315 0.0276731 37.7218C-0.0203423 37.653 0.00906714 37.5269 0.00906714 37.4268C0.00846695 35.1951 0.0168697 32.9641 0.00606617 30.7324C-0.00833847 27.704 1.32169 25.3836 3.72006 23.6471C5.41441 22.4209 7.33803 21.8407 9.4201 21.7659C9.60977 21.7593 9.79523 21.6561 9.98489 21.6471C10.1391 21.6398 10.324 21.6664 10.4476 21.749C11.4944 22.4462 12.6197 22.9384 13.8585 23.1676C17.5893 23.8576 21.2841 22.1567 23.1963 18.8744C23.3542 18.6035 23.4232 18.3382 23.422 18.0251C23.4136 15.4418 23.4196 12.8585 23.4154 10.2752C23.4154 10.1612 23.3824 10.0345 23.326 9.9362C21.5962 6.90594 19.001 5.25571 15.5169 5.24968C12.0454 5.24365 9.44831 6.87699 7.71015 9.88674C7.62192 10.0393 7.59551 10.2468 7.59491 10.429C7.58771 12.9719 7.59431 15.5154 7.58351 18.0583C7.58231 18.3538 7.63993 18.6078 7.80198 18.8484C7.95323 19.0728 8.09067 19.3062 8.23772 19.5336C8.36376 19.7284 8.38237 19.922 8.1813 20.0644C7.95983 20.2212 7.78338 20.1096 7.65253 19.91C7.48868 19.6603 7.33083 19.4045 7.16217 19.1391ZM7.15617 9.40542C9.05158 6.29977 11.8149 4.5464 15.5079 4.54761C19.2003 4.54881 21.9629 6.30641 23.85 9.4024C24.2077 9.34631 24.5336 9.29444 24.8595 9.24317C23.6279 5.66887 20.0381 2.11146 15.0151 2.35514C10.3264 2.58252 7.13757 6.18457 6.15505 9.24679C6.48035 9.29806 6.80866 9.34993 7.15617 9.40542ZM24.1014 14.2904C24.1014 15.5564 24.0996 16.8224 24.1026 18.0884C24.1032 18.4962 24.2227 18.6198 24.6158 18.621C25.3354 18.624 26.0557 18.6301 26.7753 18.6186C27.6582 18.6041 28.2332 18.0131 28.2344 17.127C28.2374 15.2482 28.2368 13.3694 28.2344 11.4899C28.2332 10.5695 27.6546 9.98927 26.7333 9.98324C26.0437 9.97902 25.3534 9.98143 24.6638 9.98204C24.2023 9.98264 24.1026 10.0822 24.102 10.552C24.1002 11.7987 24.1014 13.0449 24.1014 14.2904ZM6.90589 14.3018C6.90589 13.0461 6.90769 11.7903 6.90529 10.5345C6.90469 10.0882 6.80146 9.98626 6.35431 9.98445C5.65449 9.98143 4.95466 9.97962 4.25484 9.98445C3.34854 9.99108 2.77536 10.5671 2.77416 11.4761C2.77116 13.3549 2.77116 15.2337 2.77416 17.1119C2.77596 18.0245 3.36535 18.6132 4.28125 18.6198C4.96126 18.6247 5.64068 18.6216 6.3207 18.6204C6.79786 18.6198 6.90529 18.5137 6.90589 18.0384C6.90649 16.7935 6.90589 15.548 6.90589 14.3018ZM4.37608 9.24498C4.43249 9.2685 4.4505 9.28177 4.46851 9.28238C4.65817 9.28539 4.85083 9.26669 5.03749 9.29203C5.28537 9.3252 5.3796 9.21543 5.46123 8.99286C5.9996 7.52357 6.77985 6.19362 7.868 5.07054C10.9224 1.91845 14.571 0.84785 18.7639 2.20435C21.9269 3.2279 24.0258 5.49577 25.357 8.51275C25.4693 8.76668 25.5677 9.02724 25.6685 9.27454C25.9921 9.27454 26.2903 9.27454 26.6367 9.27454C25.9434 7.13394 24.8163 5.30215 23.1945 3.79185C21.0783 1.82134 18.5821 0.748932 15.6837 0.704299C12.753 0.659665 10.1998 1.6609 8.01505 3.6097C6.28709 5.15016 5.09871 7.04467 4.37608 9.24498ZM14.8681 21.5572C15.5475 21.5572 16.2269 21.562 16.9063 21.5554C17.312 21.5512 17.4927 21.3684 17.4993 20.9655C17.5059 20.5638 17.5065 20.1621 17.4981 19.7604C17.4903 19.3973 17.3012 19.2001 16.9375 19.1983C15.5787 19.1916 14.2199 19.1922 12.8604 19.1976C12.4853 19.1995 12.2842 19.4027 12.2758 19.7749C12.2668 20.1663 12.2674 20.5584 12.2758 20.9498C12.2842 21.3648 12.4733 21.5524 12.8892 21.556C13.5494 21.5608 14.2084 21.5566 14.8681 21.5572Z" fill="#61B0B7"/>
</g>
<defs>
<clipPath id="clip0_12_679">
<rect width="31" height="38" fill="white"/>
</clipPath>
</defs>
</svg>
