<svg width="37" height="42" viewBox="0 0 37 42" fill="none" xmlns="http://www.w3.org/2000/svg">
<g clip-path="url(#clip0_8_286)">
<path d="M22.6551 0.0017337C25.7229 0.0699646 28.6579 0.694407 31.3162 2.28272C34.1452 3.97208 36.1665 6.34289 36.7923 9.65252C37.5129 13.4648 36.3527 16.6881 33.2996 19.1012C31.8187 20.2715 30.1827 21.2457 28.6139 22.3037C27.8407 22.8254 27.065 23.3419 26.2823 23.8489C24.8411 24.7825 23.9817 26.1385 23.4326 27.7294C23.3206 28.0541 23.1861 28.372 23.0361 28.6812C22.2905 30.2159 20.9872 30.817 19.3383 30.3964C17.5574 29.943 16.5938 28.511 16.8196 26.6455C17.142 23.981 18.2281 21.6879 20.3399 20.0098C21.7052 18.925 23.2094 18.0138 24.6566 17.0344C26.0056 16.1215 27.4718 15.3666 28.5182 14.0538C29.7621 12.494 29.831 10.15 28.7105 8.50123C27.6985 7.01311 26.2771 6.25306 24.5463 5.96805C23.4162 5.78236 22.2931 5.74695 21.1949 6.11056C19.9201 6.53203 19.0418 7.47258 18.3065 8.528C17.6367 9.49015 17.0756 10.5283 16.4662 11.5328C15.3474 13.3784 13.1864 13.8742 11.4219 12.6322C10.3488 11.8765 9.51183 10.4316 10.0307 8.63424C10.8367 5.84023 12.5322 3.7242 14.9552 2.18858C17.298 0.704771 19.8675 -0.0423141 22.6551 0.0017337Z" fill="#355069"/>
<path d="M5.68468 31.1219C5.65451 30.0138 6.03378 29.037 6.70094 28.1759C7.33363 27.3589 8.0301 26.5919 8.64899 25.7654C8.97912 25.324 9.30236 24.8335 9.45752 24.3135C9.82644 23.0776 8.88948 21.6646 7.5767 21.4582C7.03797 21.3735 6.45787 21.3969 5.91914 21.4945C4.88995 21.681 4.20813 22.3305 3.89006 23.3298C3.71681 23.8739 3.57027 24.4284 3.45563 24.9872C3.24962 25.9873 2.55229 26.579 1.62739 26.496C0.647337 26.4071 0.00344616 25.6885 -1.71796e-06 24.6763C-0.00775944 22.5438 1.00936 20.94 2.72813 19.8353C5.14078 18.285 7.73789 18.0052 10.3772 19.2428C12.9545 20.452 14.3095 23.8264 12.0486 26.6809C11.4245 27.4685 10.8005 28.2571 10.1324 29.0059C9.37046 29.8601 8.96275 30.8222 8.96706 31.9752C8.96878 32.5444 8.77656 33.0635 8.22404 33.3364C7.60342 33.643 6.97246 33.6421 6.38719 33.2405C5.82863 32.8579 5.7795 32.2326 5.68985 31.6375C5.66399 31.47 5.68468 31.2947 5.68468 31.1219Z" fill="#355069"/>
<path d="M20.7674 41.9983C19.9391 41.861 18.9116 41.6891 17.8833 41.5207C17.348 41.4334 16.8067 41.3721 16.2757 41.2633C15.1215 41.0275 14.744 40.511 14.9207 39.3563C15.1474 37.8733 15.4077 36.3947 15.6602 34.9152C15.8775 33.6413 16.6851 33.5048 17.5066 33.6309C19.0004 33.8598 20.4881 34.1319 21.9785 34.3867C22.9637 34.5551 23.4214 35.1838 23.2602 36.1961C23.0128 37.7498 22.7508 39.301 22.487 40.8513C22.3612 41.5958 21.7751 42.0328 20.7674 41.9983Z" fill="#355069"/>
<path d="M10.4264 37.812C10.441 38.446 10.3264 38.6256 9.83075 38.7146C9.08687 38.8484 8.33954 38.9659 7.58877 39.0497C7.03538 39.1119 6.80351 38.8959 6.72249 38.3527C6.61302 37.6186 6.50182 36.8844 6.39149 36.1503C6.3346 35.772 6.55699 35.4205 6.94315 35.3548C7.71548 35.2236 8.49039 35.1044 9.26788 35.0085C9.7592 34.948 10.0333 35.1502 10.1178 35.6433C10.2471 36.4051 10.3367 37.1729 10.4264 37.812Z" fill="#355069"/>
</g>
<defs>
<clipPath id="clip0_8_286">
<rect width="37" height="42" fill="white"/>
</clipPath>
</defs>
</svg>
