<svg width="44" height="44" viewBox="0 0 44 44" fill="none" xmlns="http://www.w3.org/2000/svg">
<g clip-path="url(#clip0_12_656)">
<path d="M29.6836 7.11039C29.6332 10.3884 28.7522 13.4952 27.1879 16.4004C24.0901 22.1553 19.5086 26.2483 13.3558 28.5181C10.9489 29.4061 8.45505 29.8205 5.8806 29.6303C4.05682 29.4955 2.3338 29.0232 0.739247 28.1031C0.163647 27.7712 -0.0429134 27.2812 0.00683756 26.6558C0.0729622 25.8226 0.411773 25.0757 0.787739 24.347C1.79724 22.3877 3.08699 20.613 4.46364 18.9044C9.0867 13.1689 14.2721 8.00154 20.127 3.52061C21.6359 2.36622 23.2002 1.28739 24.9421 0.50205C25.6034 0.204161 26.2804 -0.0572001 27.0304 0.0114466C27.5059 0.0549018 27.8428 0.293591 28.0853 0.70673C29.2415 2.67229 29.666 4.8186 29.6836 7.11039ZM2.77148 27.9557C3.23372 28.0879 3.62039 28.2164 4.01462 28.3084C6.5494 28.8972 9.07348 28.7448 11.539 28.0067C18.9286 25.7936 24.0951 21.0438 27.1646 14.0116C28.4178 11.1404 28.9581 8.11805 28.4934 4.97731C28.3863 4.2518 28.1741 3.54203 28.0103 2.8247C27.9763 2.82974 27.9423 2.83478 27.9083 2.83982C27.7975 3.0848 27.6929 3.33231 27.5752 3.57415C26.7307 5.30921 25.6317 6.88241 24.4591 8.40397C20.6018 13.4095 16.208 17.9068 11.4162 22.0149C8.77182 24.2815 6.05756 26.4612 2.77148 27.9557ZM1.4767 27.2509C1.94901 27.0878 2.43645 26.9575 2.8905 26.7547C4.40193 26.0789 5.76913 25.1569 7.08281 24.1625C13.4119 19.373 18.9745 13.8063 23.83 7.53235C24.9283 6.11281 25.9529 4.63596 26.7042 2.99663C26.9278 2.50855 27.0638 1.97197 27.1759 1.44358C27.2464 1.11042 27.1028 0.970611 26.7666 1.03674C26.2779 1.1331 25.7608 1.22882 25.3332 1.46499C24.1417 2.12123 22.9464 2.78691 21.8311 3.56155C18.6867 5.74691 15.8409 8.29565 13.1002 10.9615C9.88398 14.0891 6.84413 17.3772 4.16199 20.9814C3.14052 22.3544 2.16061 23.7582 1.46158 25.3295C1.26006 25.7823 1.13725 26.2792 1.04153 26.7679C0.975407 27.1048 1.10199 27.1917 1.4767 27.2509Z" fill="#61B0B7"/>
<path d="M20.6649 44C19.168 43.9924 17.081 43.5799 15.1634 42.4803C14.4486 42.0703 14.2156 41.5728 14.3554 40.7478C14.4939 39.9297 14.834 39.1865 15.2219 38.4642C16.3234 36.4117 17.7019 34.5469 19.1737 32.7527C23.7835 27.1318 28.911 22.04 34.7186 17.6523C36.1255 16.5892 37.5821 15.5929 39.1981 14.8674C39.6818 14.6501 40.1982 14.4851 40.7158 14.3705C41.5616 14.1828 42.0679 14.4404 42.4949 15.186C43.4534 16.8613 43.8999 18.682 43.983 20.594C44.1297 23.9879 43.3117 27.179 41.7902 30.1819C38.7491 36.1825 34.0983 40.4304 27.7862 42.8129C25.6772 43.607 23.4283 43.9994 20.6649 44ZM42.3305 17.0596C42.2405 17.1686 42.2228 17.1825 42.2153 17.2001C41.4438 19.0447 40.3317 20.6853 39.132 22.2655C34.713 28.0853 29.5968 33.23 23.9378 37.8401C22.1801 39.2716 20.3563 40.6155 18.343 41.6774C17.9563 41.8814 17.5545 42.0584 17.1238 42.2649C18.1018 42.6353 19.0811 42.8305 20.0837 42.9205C22.3873 43.1277 24.6349 42.8103 26.8057 42.0584C33.4679 39.7515 38.2554 35.3404 41.2209 28.9702C42.6114 25.9831 43.2871 22.8335 42.8501 19.519C42.7436 18.7172 42.5182 17.9313 42.3305 17.0596ZM15.2912 41.0545C15.3334 41.4393 15.4738 41.5955 15.8498 41.5042C16.3756 41.3757 16.9059 41.2233 17.3952 40.9978C18.8689 40.3189 20.197 39.3956 21.4943 38.4314C25.3642 35.5558 28.8751 32.2784 32.2009 28.7989C34.7848 26.0952 37.2396 23.2813 39.3562 20.1884C40.1207 19.0712 40.8506 17.9294 41.3141 16.6452C41.4161 16.3625 41.4804 16.0589 41.5144 15.7598C41.5503 15.4474 41.423 15.324 41.1126 15.3504C40.8644 15.3718 40.5981 15.3995 40.3789 15.5053C39.4557 15.9493 38.5073 16.36 37.6395 16.8984C34.8843 18.6095 32.4093 20.6904 30.0137 22.8644C25.8787 26.6166 22.0214 30.6309 18.6491 35.0923C17.5539 36.5414 16.5129 38.0296 15.766 39.6967C15.5714 40.1325 15.448 40.601 15.2912 41.0545Z" fill="#61B0B7"/>
<path d="M7.87263 27.1866C7.77817 27.1866 7.68056 27.2011 7.5905 27.1816C7.52312 27.1671 7.46518 27.1085 7.40283 27.0701C7.46014 27.0241 7.51367 26.946 7.57539 26.9385C7.79328 26.9108 8.01496 26.9133 8.23411 26.8931C11.575 26.5908 14.5682 25.3552 17.3121 23.4765C20.0761 21.5847 22.3388 19.206 24.1028 16.3555C24.1412 16.2932 24.167 16.2145 24.2212 16.1723C24.2753 16.1301 24.3578 16.1231 24.4277 16.1011C24.4309 16.1672 24.4599 16.2478 24.4328 16.2976C24.3169 16.5086 24.1903 16.7145 24.0568 16.9154C21.0799 21.3825 17.1641 24.658 12.0297 26.3805C10.6814 26.8327 9.29274 27.0928 7.87263 27.1866Z" fill="#61B0B7"/>
<path d="M22.0334 41.5224C21.9912 41.5224 21.9433 41.5356 21.9087 41.5193C21.8419 41.4872 21.7834 41.4387 21.7216 41.3965C21.7815 41.353 21.8382 41.2781 21.9024 41.2711C22.2355 41.234 22.5718 41.2252 22.905 41.1874C26.4902 40.7761 29.6491 39.332 32.505 37.1807C34.9012 35.3757 36.8913 33.1941 38.4594 30.6322C38.4978 30.5698 38.5305 30.498 38.5847 30.4533C38.6225 30.4212 38.7113 30.4004 38.7421 30.4224C38.7768 30.4476 38.7862 30.5289 38.7806 30.5824C38.7755 30.6303 38.7371 30.6762 38.7088 30.7203C35.6595 35.5527 31.5415 39.0467 26.0462 40.8038C24.7432 41.2208 23.4006 41.4487 22.0334 41.5224Z" fill="#61B0B7"/>
</g>
<defs>
<clipPath id="clip0_12_656">
<rect width="44" height="44" fill="white"/>
</clipPath>
</defs>
</svg>
