
<svg width="59" height="22" viewBox="0 0 59 22" fill="none" xmlns="http://www.w3.org/2000/svg">
<g clip-path="url(#clip0_19_2483)">
<path d="M119.409 28.6032C119.206 41.7899 115.662 54.2874 109.369 65.9743C96.9078 89.125 78.4777 105.59 53.7269 114.721C44.0444 118.293 34.0124 119.96 23.6561 119.195C16.3195 118.652 9.38824 116.752 2.9738 113.051C0.658316 111.716 -0.172622 109.745 0.0275126 107.229C0.293514 103.877 1.65646 100.873 3.16886 97.9414C7.22982 90.0598 12.4181 82.9206 17.956 76.0473C36.5533 52.9751 57.4129 32.1881 80.9655 14.1625C87.0354 9.5187 93.3282 5.17888 100.335 2.01966C102.995 0.821337 105.719 -0.230048 108.736 0.046099C110.649 0.220908 112.004 1.18109 112.979 2.84304C117.631 10.75 119.338 19.384 119.409 28.6032ZM11.1489 112.458C13.0084 112.99 14.5639 113.507 16.1497 113.877C26.3465 116.246 36.5001 115.633 46.4182 112.663C76.1445 103.761 96.9281 84.6534 109.276 56.3649C114.317 44.8148 116.491 32.6568 114.621 20.0224C114.19 17.1039 113.337 14.2487 112.678 11.3631C112.541 11.3833 112.404 11.4036 112.268 11.4239C111.822 12.4094 111.401 13.405 110.927 14.3779C107.53 21.3575 103.109 27.6861 98.3924 33.8069C82.8756 53.9429 65.2004 72.0343 45.9242 88.56C35.2867 97.6779 24.3679 106.446 11.1489 112.458ZM5.94035 109.623C7.84036 108.967 9.80117 108.443 11.6277 107.627C17.7078 104.908 23.2077 101.199 28.4922 97.1991C53.9524 77.9322 76.3294 55.5389 95.8616 30.3006C100.28 24.5902 104.401 18.6493 107.424 12.0547C108.323 10.0913 108.87 7.93275 109.321 5.80718C109.605 4.46698 109.027 3.90455 107.675 4.17057C105.709 4.55819 103.629 4.94327 101.909 5.89332C97.1156 8.53318 92.3073 11.211 87.8207 14.3272C75.1717 23.1183 63.7235 33.3712 52.6984 44.0953C39.7606 56.6765 27.5321 69.9036 16.7425 84.4026C12.6335 89.9256 8.69157 95.5726 5.87955 101.894C5.06888 103.715 4.57487 105.714 4.18981 107.68C3.9238 109.035 4.43301 109.385 5.94035 109.623Z" fill="#61B0B7"/>
<path d="M83.1293 177C77.1075 176.97 68.712 175.31 60.998 170.887C58.1226 169.238 57.1853 167.236 57.7477 163.917C58.305 160.626 59.673 157.637 61.2336 154.731C65.6644 146.474 71.2099 138.973 77.1303 131.755C95.6744 109.144 116.301 88.6609 139.664 71.0103C145.323 66.7339 151.183 62.7259 157.683 59.8074C159.629 58.9333 161.706 58.2696 163.789 57.8085C167.191 57.0535 169.228 58.0897 170.945 61.0893C174.801 67.8283 176.597 75.1525 176.932 82.8441C177.522 96.4969 174.231 109.334 168.11 121.413C155.877 145.552 137.168 162.64 111.776 172.224C103.292 175.419 94.2456 176.998 83.1293 177ZM170.284 68.6264C169.922 69.0646 169.851 69.1204 169.821 69.1913C166.717 76.6118 162.243 83.2115 157.417 89.5679C139.641 112.98 119.06 133.675 96.2951 152.22C89.2245 157.979 81.888 163.385 73.7888 167.657C72.2334 168.478 70.6171 169.189 68.8843 170.02C72.8186 171.51 76.7579 172.295 80.791 172.658C90.058 173.491 99.0995 172.214 107.832 169.189C134.632 159.909 153.891 142.165 165.82 116.539C171.414 104.523 174.132 91.8531 172.374 78.5195C171.946 75.2944 171.039 72.1327 170.284 68.6264ZM61.5122 165.151C61.682 166.699 62.2469 167.327 63.7593 166.96C65.8747 166.443 68.0077 165.83 69.9762 164.923C75.9042 162.192 81.247 158.478 86.4657 154.599C102.033 143.031 116.157 129.847 129.535 115.85C139.93 104.974 149.805 93.6544 158.319 81.2126C161.395 76.7182 164.331 72.1251 166.195 66.9593C166.606 65.8218 166.864 64.6007 167.001 63.3973C167.145 62.1407 166.634 61.6441 165.385 61.7505C164.386 61.8367 163.315 61.9482 162.433 62.3738C158.719 64.1599 154.904 65.8117 151.413 67.9778C140.33 74.8612 130.374 83.2317 120.737 91.9772C104.103 107.072 88.5861 123.22 75.0201 141.167C70.6146 146.996 66.4269 152.983 63.4224 159.689C62.6396 161.442 62.143 163.327 61.5122 165.151Z" fill="#61B0B7"/>
<path d="M31.6694 109.364C31.2894 109.364 30.8967 109.423 30.5345 109.344C30.2634 109.286 30.0303 109.05 29.7795 108.896C30.0101 108.711 30.2254 108.397 30.4737 108.366C31.3502 108.255 32.242 108.265 33.1236 108.184C46.563 106.968 58.604 101.997 69.6418 94.4397C80.7606 86.8292 89.863 77.2603 96.9589 65.7939C97.1134 65.5431 97.2173 65.2264 97.4351 65.0567C97.653 64.8869 97.9849 64.8591 98.2661 64.7704C98.2788 65.0364 98.3953 65.3607 98.2863 65.5608C97.8202 66.4095 97.311 67.238 96.7739 68.0461C84.7988 86.016 69.0464 99.1925 48.3921 106.121C42.9682 107.94 37.3821 108.987 31.6694 109.364Z" fill="#61B0B7"/>
<path d="M88.6343 167.033C88.4645 167.033 88.272 167.087 88.1327 167.021C87.8641 166.892 87.6285 166.696 87.3802 166.527C87.6209 166.352 87.8489 166.05 88.1073 166.023C89.4475 165.873 90.8003 165.838 92.1404 165.686C106.563 164.031 119.27 158.222 130.759 149.568C140.398 142.307 148.404 133.531 154.712 123.225C154.866 122.974 154.998 122.685 155.216 122.505C155.368 122.376 155.725 122.293 155.849 122.381C155.988 122.483 156.026 122.809 156.004 123.025C155.983 123.217 155.829 123.402 155.715 123.58C143.448 143.019 126.883 157.074 104.777 164.143C99.5353 165.82 94.1342 166.737 88.6343 167.033Z" fill="#61B0B7"/>
</g>
<defs>
<clipPath id="clip0_19_2483">
<rect width="177" height="177" fill="white"/>
</clipPath>
</defs>
</svg>
