<svg width="43" height="39" viewBox="0 0 43 39" fill="none" xmlns="http://www.w3.org/2000/svg">
<path d="M6.39889 6.0905C6.39889 5.92855 6.39889 5.80535 6.39889 5.68215C6.39889 4.13032 6.39832 2.57848 6.39889 1.02665C6.39889 0.331999 6.72361 0 7.40191 0C18.9313 0 30.4608 0 41.9902 0C42.6928 0 42.9994 0.31696 42.9994 1.04227C42.9994 11.731 43 22.4203 42.9989 33.109C42.9983 36.0132 41.0313 38.4193 38.2213 38.8988C37.5951 39.0058 36.9439 38.9792 36.3047 38.9798C25.6708 38.9838 15.0369 38.9624 4.40302 38.9994C2.26968 39.0069 1.03131 37.6171 0.504624 36.2729C0.152745 35.3758 0.00113144 34.4422 0.00113144 33.4804C0 28.1412 0.000565722 22.8015 0.000565722 17.4617C0.000565722 14.0209 0.000565722 10.58 0 7.13913C0 6.42249 0.316239 6.09107 1.01321 6.09107C2.68209 6.08992 4.35041 6.09107 6.01929 6.09107C6.1313 6.0905 6.24388 6.0905 6.39889 6.0905ZM7.07606 37.2457C7.22937 37.2457 7.32328 37.2457 7.41662 37.2457C17.3434 37.2457 27.2695 37.2457 37.1963 37.2457C39.5457 37.2457 41.3006 35.4498 41.3006 33.0431C41.3011 22.7205 41.3006 12.3985 41.3006 2.07586C41.3006 1.9729 41.3006 1.86937 41.3006 1.75832C30.2192 1.75832 19.1689 1.75832 8.09719 1.75832C8.09719 1.90408 8.09719 2.02785 8.09719 2.15221C8.09719 12.5616 8.09945 22.9704 8.0904 33.3797C8.08983 33.9442 8.02194 34.5128 7.93595 35.071C7.81828 35.8373 7.52015 36.543 7.07606 37.2457ZM1.69943 7.85171C1.69943 7.9992 1.69943 8.13165 1.69943 8.2641C1.69943 16.5028 1.6983 24.7414 1.70169 32.9801C1.70169 33.4318 1.71301 33.8864 1.76223 34.3347C1.84878 35.1201 2.08242 35.857 2.58309 36.4811C3.36039 37.4493 4.56991 37.5031 5.41 36.5921C5.59499 36.3914 5.7534 36.1555 5.88012 35.9114C6.2682 35.1635 6.39719 34.3497 6.39719 33.5128C6.39889 25.0526 6.39832 16.5924 6.39775 8.13223C6.39775 8.04084 6.38701 7.94888 6.38135 7.85229C4.81373 7.85171 3.27101 7.85171 1.69943 7.85171Z" fill="#355069"/>
<path d="M24.0636 23.3423C19.4761 23.3423 14.9079 23.3423 10.3193 23.3423C10.3193 20.138 10.3193 16.9435 10.3193 13.7259C14.8892 13.7259 19.4654 13.7259 24.0636 13.7259C24.0636 16.9238 24.0636 20.1258 24.0636 23.3423Z" fill="#355069"/>
<path d="M38.6066 26.0972C38.6066 27.0081 38.6066 27.8902 38.6066 28.7867C29.4096 28.7867 20.2314 28.7867 11.0299 28.7867C11.0299 27.8879 11.0299 26.9989 11.0299 26.0972C20.2212 26.0972 29.4012 26.0972 38.6066 26.0972Z" fill="#355069"/>
<path d="M38.6032 32.0604C38.6032 32.961 38.6032 33.8425 38.6032 34.7372C29.4051 34.7372 20.228 34.7372 11.0288 34.7372C11.0288 33.8482 11.0288 32.9662 11.0288 32.0604C20.2116 32.0604 29.3966 32.0604 38.6032 32.0604Z" fill="#355069"/>
<path d="M33.4761 4.85331C32.9624 7.09864 32.4595 9.29712 31.9469 11.5372C31.6414 11.5372 31.3337 11.5372 31.0265 11.5372C30.6491 11.5372 30.2718 11.5286 29.895 11.5407C29.7044 11.5465 29.619 11.4991 29.5771 11.2851C29.3452 10.0976 29.0928 8.91364 28.8462 7.72909C28.8309 7.65506 28.8055 7.58333 28.7636 7.43411C28.5961 8.22882 28.4434 8.94892 28.2929 9.6696C28.1769 10.2243 28.0576 10.7784 27.9529 11.3354C27.9235 11.4927 27.859 11.5401 27.7091 11.539C27.0681 11.5332 26.4266 11.543 25.7862 11.5303C25.7093 11.5286 25.5825 11.4349 25.5656 11.3626C25.07 9.24044 24.5852 7.11599 24.0998 4.99155C24.0919 4.95569 24.0941 4.91751 24.0913 4.86604C24.8035 4.86604 25.5084 4.86604 26.2557 4.86604C26.5013 6.0957 26.7479 7.33347 26.9951 8.57123C27.0127 8.57355 27.0297 8.57528 27.0472 8.57759C27.2905 7.34446 27.5337 6.11074 27.7792 4.86661C28.4779 4.86661 29.1624 4.86661 29.86 4.86661C30.1185 6.10496 30.3753 7.33462 30.6316 8.56371C30.6486 8.56661 30.6661 8.5695 30.6831 8.57239C30.7515 8.2242 30.8223 7.87658 30.8873 7.52781C31.0406 6.70591 31.1872 5.88285 31.3495 5.06327C31.3654 4.98287 31.4745 4.86314 31.5424 4.86199C32.1721 4.84695 32.8029 4.85331 33.4761 4.85331Z" fill="#355069"/>
<path d="M14.5294 8.12934C14.5294 6.99395 14.5294 5.94069 14.5294 4.87066C15.1834 4.87066 15.8085 4.87066 16.4478 4.87066C16.4478 7.08765 16.4478 9.29018 16.4478 11.5343C15.8595 11.5343 15.279 11.5401 14.6997 11.5268C14.6256 11.5251 14.5408 11.4349 14.4819 11.366C13.6826 10.4296 12.8877 9.48914 12.0906 8.55041C12.038 8.48794 11.9809 8.42953 11.8887 8.32888C11.8887 9.418 11.8887 10.4533 11.8887 11.5129C11.2409 11.5129 10.6152 11.5129 9.96916 11.5129C9.96916 9.30753 9.96916 7.09748 9.96916 4.85678C10.5569 4.85678 11.1385 4.851 11.7195 4.8643C11.7914 4.86604 11.8717 4.96205 11.9294 5.03088C12.7146 5.96672 13.4964 6.90603 14.2794 7.84419C14.3439 7.92054 14.4112 7.99457 14.5294 8.12934Z" fill="#355069"/>
<path d="M26.6387 16.8758C26.6387 15.9886 26.6387 15.1059 26.6387 14.2025C30.6231 14.2025 34.603 14.2025 38.6038 14.2025C38.6038 15.0897 38.6038 15.9712 38.6038 16.8758C34.616 16.8758 30.6361 16.8758 26.6387 16.8758Z" fill="#355069"/>
<path d="M26.6337 22.8281C26.6337 21.9252 26.6337 21.0501 26.6337 20.1542C30.6265 20.1542 34.6064 20.1542 38.6055 20.1542C38.6055 21.0443 38.6055 21.9258 38.6055 22.8281C34.6188 22.8281 30.639 22.8281 26.6337 22.8281Z" fill="#355069"/>
<path d="M19.983 8.89976C19.983 9.26646 19.983 9.58111 19.983 9.92294C21.1801 9.92294 22.3641 9.92294 23.5691 9.92294C23.5691 10.4643 23.5691 10.9791 23.5691 11.5158C21.683 11.5158 19.7941 11.5158 17.8842 11.5158C17.8842 9.30695 17.8842 7.09748 17.8842 4.87066C19.7601 4.87066 21.6287 4.87066 23.512 4.87066C23.512 5.39526 23.512 5.90251 23.512 6.44216C22.3443 6.44216 21.1807 6.44216 19.9932 6.44216C19.9932 6.7649 19.9932 7.05641 19.9932 7.37858C20.9889 7.37858 21.9828 7.37858 22.9932 7.37858C22.9932 7.89566 22.9932 8.38209 22.9932 8.90034C21.993 8.89976 20.9996 8.89976 19.983 8.89976Z" fill="#355069"/>
<path d="M39.8404 6.89967C39.1921 6.89967 38.5636 6.89967 37.939 6.89967C37.6963 6.23047 37.1137 5.98754 36.4716 6.30161C36.355 6.3583 36.2181 6.51273 36.2136 6.62667C36.2091 6.74235 36.3347 6.93438 36.4427 6.97139C36.8862 7.12235 37.3462 7.223 37.7976 7.34909C38.1506 7.44741 38.5104 7.5307 38.8499 7.66489C39.544 7.93963 40.0062 8.43415 40.0401 9.22829C40.0746 10.0369 39.8172 10.7263 39.1146 11.1781C38.5794 11.5222 37.9815 11.6269 37.362 11.6419C36.6628 11.6587 35.9675 11.6333 35.3005 11.3898C34.3733 11.0514 33.8675 10.259 33.9603 9.25952C34.2822 9.25952 34.6086 9.25952 34.9351 9.25952C35.2536 9.25952 35.5721 9.25952 35.8849 9.25952C36.0031 9.90443 36.1021 10.0803 36.9207 10.1132C37.0978 10.1202 37.2766 10.0913 37.4537 10.0687C37.6754 10.0404 37.8706 9.94492 37.8876 9.69332C37.904 9.45097 37.7116 9.33587 37.5198 9.27572C37.1968 9.17508 36.8636 9.1103 36.5377 9.01833C36.0863 8.89109 35.623 8.78871 35.1908 8.60999C34.4536 8.30517 34.039 7.73661 34.0339 6.89736C34.0288 6.04885 34.3988 5.42014 35.158 5.09335C36.3465 4.58147 37.5617 4.57453 38.7509 5.09277C39.5112 5.42419 39.9083 6.12115 39.8404 6.89967Z" fill="#355069"/>
</svg>
