<svg width="48" height="38" viewBox="0 0 48 38" fill="none" xmlns="http://www.w3.org/2000/svg">
<path d="M3.44907 30.6471C2.77201 30.3907 2.13157 30.246 1.59724 29.9234C0.543619 29.2859 0.0139897 28.2737 0.0111725 27.0373C-0.00103522 21.2689 -0.00760863 15.5004 0.0149288 9.732C0.0224413 7.75495 1.55311 6.31899 3.58054 6.31804C14.6427 6.31331 25.7048 6.30574 36.7659 6.33696C37.3895 6.33885 38.0741 6.56399 38.6225 6.8771C39.6911 7.4863 40.2217 8.50509 40.2245 9.74618C40.2358 15.4834 40.2414 21.2206 40.2254 26.9569C40.2198 29.0683 38.7333 30.491 36.5847 30.4919C28.8403 30.4967 21.0949 30.4967 13.3505 30.4863C12.9486 30.4853 12.65 30.5894 12.3542 30.8713C9.98961 33.1227 7.60816 35.3561 5.23891 37.6027C4.88958 37.9338 4.51678 38.1126 4.05288 37.9234C3.56082 37.7228 3.44437 37.3104 3.44719 36.809C3.4594 34.8859 3.45188 32.9637 3.45095 31.0406C3.44907 30.8703 3.44907 30.7001 3.44907 30.6471ZM4.60881 29.3492C4.60881 31.7917 4.60881 34.1547 4.60881 36.5877C4.76469 36.4553 4.85108 36.3871 4.92996 36.3134C7.2485 34.1273 9.57173 31.9449 11.879 29.7465C12.1729 29.4665 12.4584 29.3417 12.8678 29.3417C20.755 29.353 28.6421 29.3521 36.5293 29.3492C38.1783 29.3483 39.0864 28.4231 39.0864 26.7687C39.0864 21.1885 39.0873 15.6073 39.0873 10.0271C39.0873 8.37644 38.1698 7.4617 36.5218 7.4617C25.7395 7.4617 14.9572 7.4617 4.17496 7.4617C3.89324 7.4617 3.61059 7.44751 3.33075 7.46832C2.08086 7.56103 1.15213 8.49563 1.14837 9.75659C1.13241 15.4948 1.13053 21.2329 1.14649 26.9711C1.15025 28.3815 2.13063 29.3171 3.53734 29.3483C3.86319 29.3549 4.18905 29.3492 4.60881 29.3492Z" fill="#61B0B7"/>
<path d="M15.315 5.16114C14.8436 5.16114 14.4426 5.16114 14.0576 5.16114C14.0576 4.23883 13.9562 3.3326 14.0811 2.45854C14.2764 1.08785 15.4399 0.122028 16.8119 0.0141893C16.9828 0.000945957 17.1556 0 17.3274 0C26.4523 0 35.5762 0 44.7001 0C46.7294 0 47.9952 1.25623 47.9971 3.29004C48.0008 7.94035 48.0018 12.5916 47.9961 17.2419C47.9943 19.3439 46.7491 20.5821 44.6569 20.5821C43.5779 20.5821 42.4998 20.5821 41.3805 20.5821C41.3805 20.1394 41.3805 19.727 41.3805 19.2502C41.5551 19.2502 41.7214 19.2502 41.8876 19.2502C42.9046 19.2502 43.9225 19.2634 44.9395 19.2455C45.9349 19.2284 46.6608 18.4982 46.6617 17.5002C46.6693 12.6919 46.6693 7.8836 46.6617 3.0753C46.6599 2.09435 45.9528 1.38961 44.9761 1.34042C44.8672 1.33474 44.7573 1.33758 44.6475 1.33758C35.5855 1.33758 26.5246 1.33664 17.4626 1.34042C17.1518 1.34042 16.8288 1.34042 16.532 1.42083C15.7845 1.62231 15.3197 2.32232 15.3141 3.18882C15.3113 3.83301 15.315 4.47626 15.315 5.16114Z" fill="#61B0B7"/>
<path d="M24.7422 17.871C24.7516 16.5495 25.0784 15.193 26.0419 14.0909C27.4495 12.4819 29.276 12.1129 31.2612 12.5982C33.2294 13.0788 34.3957 14.4457 34.8146 16.4076C35.2475 18.4367 35.0108 20.3607 33.6107 22.0076C33.4332 22.2167 33.5018 22.3425 33.699 22.4541C34.0661 22.6632 34.4192 22.9082 34.808 23.0652C35.3329 23.2762 35.0324 23.5704 34.9489 23.8627C34.8427 24.2325 34.6202 24.2344 34.3432 24.0727C33.8032 23.7567 33.2726 23.4247 32.7233 23.1258C32.5843 23.0501 32.3542 23.0037 32.2265 23.0671C29.2403 24.5409 24.7638 23.1172 24.7422 17.871ZM31.0527 22.1382C31.0649 22.0852 31.0771 22.0322 31.0903 21.9793C30.909 21.8743 30.7344 21.7522 30.5437 21.668C29.923 21.3947 29.9324 21.4041 30.1324 20.7637C30.2207 20.4799 30.3597 20.4156 30.6151 20.5348C30.9963 20.7126 31.3973 20.8564 31.7598 21.0664C32.3711 21.4211 32.4481 21.4183 32.8313 20.8053C32.8641 20.7524 32.8914 20.6947 32.9205 20.6388C33.6492 19.2521 33.6802 17.7925 33.2999 16.3177C32.8641 14.6282 31.4781 13.6142 29.7615 13.6548C28.0477 13.6955 26.748 14.7777 26.3696 16.4993C26.1283 17.5938 26.132 18.6873 26.4485 19.7705C26.8175 21.0314 27.6214 21.8714 28.8788 22.2271C29.6075 22.4362 30.3456 22.4371 31.0527 22.1382Z" fill="#61B0B7"/>
<path d="M18.9783 20.1347C18.3848 20.1347 17.7904 20.1546 17.1978 20.1262C16.8917 20.111 16.7433 20.217 16.6466 20.4989C16.3602 21.3323 16.039 22.1524 15.7639 22.9896C15.6559 23.3188 15.4841 23.4172 15.1516 23.4143C14.0924 23.4039 14.083 23.4124 14.4642 22.4088C15.6587 19.2635 16.8645 16.1219 18.0543 12.9747C18.1622 12.69 18.3153 12.6011 18.6074 12.5992C19.7361 12.5935 19.7342 12.585 20.1643 13.6464C21.4058 16.7065 22.65 19.7658 23.8924 22.8259C24.114 23.3717 24.0896 23.4039 23.5017 23.4067C22.4979 23.4115 22.4979 23.4115 22.1373 22.4513C21.8997 21.8185 21.648 21.1894 21.4292 20.55C21.3194 20.2302 21.1419 20.111 20.8066 20.1243C20.1981 20.1479 19.5887 20.1309 18.9792 20.1309C18.9783 20.1328 18.9783 20.1337 18.9783 20.1347ZM18.9708 14.1752C18.8665 14.3369 18.8111 14.3956 18.7867 14.4646C18.3106 15.8107 17.8448 17.1606 17.3612 18.5048C17.2485 18.8189 17.2626 18.9759 17.6505 18.9702C18.5397 18.957 19.43 18.9532 20.3193 18.9702C20.7231 18.9787 20.7625 18.8274 20.6357 18.4887C20.1446 17.1814 19.6694 15.8675 19.1839 14.5573C19.1436 14.4504 19.0722 14.3558 18.9708 14.1752Z" fill="#61B0B7"/>
<path d="M7.02501 17.9855C7.02595 16.3783 7.03816 14.7701 7.0175 13.1639C7.01186 12.7439 7.10953 12.5907 7.56121 12.5963C9.61024 12.6209 11.6602 12.6181 13.7092 12.5973C14.1374 12.5926 14.2849 12.7089 14.267 13.1507C14.236 13.8819 14.2623 13.8828 13.5195 13.8828C12.018 13.8828 10.5155 13.8999 9.01394 13.8715C8.5491 13.863 8.42045 14.0191 8.43923 14.4665C8.47116 15.2214 8.46553 15.9791 8.44017 16.7349C8.42796 17.1076 8.5491 17.2296 8.92003 17.2249C10.2807 17.2079 11.6424 17.2306 13.0031 17.2098C13.3806 17.2041 13.5242 17.3299 13.481 17.6998C13.467 17.8237 13.4698 17.9523 13.481 18.0772C13.5111 18.4092 13.3608 18.5114 13.0406 18.5076C11.6959 18.4944 10.3512 18.5199 9.00736 18.4896C8.54159 18.4792 8.42984 18.6382 8.43923 19.0818C8.46647 20.3418 8.4336 21.6028 8.4552 22.8637C8.46177 23.262 8.37068 23.4294 7.93872 23.4143C6.84659 23.3746 7.0344 23.5231 7.02689 22.4759C7.01656 20.9794 7.02407 19.482 7.02501 17.9855Z" fill="#61B0B7"/>
</svg>
