<svg width="41" height="46" viewBox="0 0 41 46" fill="none" xmlns="http://www.w3.org/2000/svg">
<path d="M2.29639 22.2982C7.87005 22.2982 13.381 22.2982 18.9313 22.2982C18.9313 30.0316 18.9313 37.7592 18.9313 45.5324C18.7876 45.5391 18.6413 45.5526 18.4943 45.5535C13.7178 45.5543 8.94133 45.5552 4.16486 45.5543C2.91392 45.5543 2.29639 44.9253 2.29639 43.6572C2.29639 36.7208 2.29639 29.7851 2.29639 22.8486C2.29639 22.6798 2.29639 22.5134 2.29639 22.2982Z" fill="#355069"/>
<path d="M22.0515 45.529C22.0515 37.771 22.0515 30.0527 22.0515 22.3074C27.5968 22.3074 33.1178 22.3074 38.6739 22.3074C38.684 22.4324 38.7032 22.554 38.7032 22.6747C38.7048 29.7235 38.7057 36.7731 38.7032 43.8219C38.7032 44.8629 38.0414 45.5484 37.0043 45.5501C32.1159 45.5577 27.2283 45.5535 22.3398 45.5526C22.2579 45.5526 22.1761 45.5391 22.0515 45.529Z" fill="#355069"/>
<path d="M18.9413 20.3943C18.7341 20.3943 18.5686 20.3943 18.4023 20.3943C13.1696 20.3943 7.93606 20.3943 2.70334 20.3943C1.00199 20.3943 0.00508233 19.3914 0.00257544 17.6716C6.85427e-05 15.9839 -0.00160272 14.2971 0.00257544 12.6094C0.0067536 11.0162 1.00366 9.99045 2.58133 9.98792C7.89762 9.98032 13.2139 9.98539 18.531 9.98285C18.7851 9.98285 18.9798 9.97695 18.9781 10.345C18.9664 13.5929 18.9714 16.8417 18.9697 20.0896C18.9714 20.1723 18.9555 20.2542 18.9413 20.3943Z" fill="#355069"/>
<path d="M22.0482 20.3943C22.039 20.1993 22.0282 20.0617 22.0273 19.9241C22.0265 16.7741 22.0332 13.6242 22.0181 10.4751C22.0165 10.0842 22.1259 9.97694 22.507 9.97779C27.7957 9.98876 33.0844 9.98201 38.3731 9.98708C40.0043 9.98876 40.9937 11.001 40.997 12.6499C41.0003 14.3511 41.002 16.0531 40.9962 17.7543C40.9911 19.3584 39.9642 20.3927 38.3806 20.3935C33.0919 20.3952 27.8032 20.3943 22.5145 20.3943C22.3766 20.3943 22.2387 20.3943 22.0482 20.3943Z" fill="#355069"/>
<path d="M15.481 8.93594C14.042 8.81943 12.5897 8.79241 11.1674 8.56615C9.02572 8.22507 7.65027 6.36515 7.72464 4.11518C7.79149 2.0729 9.41095 0.305849 11.4666 0.0483476C12.9039 -0.132325 14.1289 0.299939 15.1125 1.38904C16.2272 2.62252 17.0829 4.03751 17.9051 5.47445C18.2118 6.00971 18.506 6.55173 18.7867 7.10135C19.2112 7.93042 18.7917 8.67844 17.865 8.73838C17.0737 8.78988 16.2815 8.81352 15.4893 8.84982C15.4868 8.87768 15.4843 8.90723 15.481 8.93594ZM16.1754 6.69103C16.172 6.65304 16.1821 6.60323 16.162 6.57453C15.3055 5.298 14.4916 3.98769 13.5699 2.76098C12.9916 1.99185 11.9354 1.87196 11.0571 2.2941C10.1689 2.72129 9.67501 3.63732 9.78865 4.64622C9.89478 5.59433 10.5608 6.34742 11.4858 6.54413C11.8117 6.61336 12.1443 6.6809 12.4752 6.68512C13.7053 6.70117 14.9361 6.69103 16.1754 6.69103Z" fill="#355069"/>
<path d="M25.8478 8.86422C24.7398 8.81356 23.9618 8.78401 23.1838 8.7418C22.2045 8.68861 21.7741 7.94397 22.2279 7.07099C23.1671 5.26511 24.1782 3.50397 25.4392 1.90071C26.2289 0.895187 27.174 0.185159 28.4859 0.0298136C30.7831 -0.24204 32.8588 1.3722 33.2448 3.7716C33.5975 5.96669 32.0841 8.13477 29.8848 8.57801C29.5438 8.6464 29.1995 8.71816 28.8544 8.73673C27.7439 8.79583 26.6316 8.83213 25.8478 8.86422ZM24.8141 6.73498C26.4361 6.81265 28.0447 6.85908 29.6282 6.50702C30.773 6.25206 31.4725 4.99748 31.1683 3.81635C30.9435 2.94253 30.3861 2.3659 29.5146 2.14723C28.6789 1.93786 27.8884 2.10249 27.3712 2.8142C26.4846 4.03417 25.6774 5.31323 24.8384 6.56866C24.8192 6.59905 24.8267 6.64717 24.8141 6.73498Z" fill="#355069"/>
</svg>
