<svg width="38" height="49" viewBox="0 0 38 49" fill="none" xmlns="http://www.w3.org/2000/svg">
<path d="M18.5199 49.0003C18.3931 48.9415 18.2675 48.8804 18.1395 48.8241C17.2725 48.4406 16.7628 47.785 16.7 46.8419C16.6373 45.8975 17.0454 45.1568 17.8799 44.7086C18.2059 44.5324 18.3001 44.3443 18.2856 44.0039C18.2603 43.449 18.2784 42.8929 18.2784 42.2554C18.0369 42.2554 17.8364 42.2554 17.6347 42.2554C13.2958 42.2554 8.95683 42.253 4.61787 42.2578C3.95851 42.259 3.33659 42.1727 2.83181 41.6981C2.3705 41.2654 2.18211 40.7237 2.17366 40.1089C2.16762 39.6619 2.17124 39.2161 2.17124 38.7691C2.17124 28.0045 2.17124 17.2388 2.17124 6.47431C2.17124 6.2538 2.17124 6.03208 2.17124 5.83793C2.11207 5.79239 2.09033 5.76123 2.06256 5.75644C0.547001 5.4736 0.00357462 4.83003 0.00357462 3.31159C0.00357462 2.86457 -0.00850153 2.41754 0.0108203 1.97172C0.0591249 0.90869 0.877887 0.0481998 1.95146 0.0242307C3.60589 -0.0141198 5.26153 0.00385702 6.91717 0.0134447C7.40021 0.0158416 7.71661 0.337027 7.70332 0.743303C7.69004 1.15198 7.37606 1.43601 6.87973 1.43841C5.3847 1.44799 3.89088 1.4408 2.39586 1.4432C1.63023 1.4444 1.45271 1.61698 1.4503 2.36002C1.44909 2.74233 1.44667 3.12583 1.4515 3.50814C1.45875 4.09778 1.66887 4.29912 2.27389 4.3099C2.3548 4.3111 2.4345 4.3099 2.51541 4.3099C13.5071 4.3099 24.4988 4.3099 35.4905 4.3099C36.418 4.3099 36.5544 4.17688 36.5544 3.26845C36.5544 2.93408 36.5569 2.59851 36.5532 2.26414C36.546 1.64574 36.3431 1.45039 35.7043 1.4432C35.592 1.442 35.4797 1.4432 35.3673 1.4432C26.9467 1.4432 18.526 1.4432 10.1053 1.442C9.92896 1.442 9.74781 1.45519 9.57754 1.42043C9.20318 1.34373 8.97615 1.10644 8.97977 0.719334C8.98339 0.332233 9.21526 0.10213 9.58841 0.0266276C9.72849 -0.00213525 9.87582 0.00745238 10.0207 0.00745238C18.5694 0.00625393 27.1193 0.00625393 35.668 0.00745238C37.1727 0.00745238 37.9951 0.822401 38.0012 2.30729C38.0024 2.62608 38.0012 2.94486 38.0012 3.26365C38.0012 4.84202 37.4432 5.50836 35.8516 5.78161C35.8444 5.9398 35.8311 6.10878 35.8311 6.27777C35.8287 7.36237 35.8359 8.44697 35.8262 9.53157C35.8214 10.0996 35.5473 10.4256 35.1125 10.428C34.6778 10.4316 34.3916 10.1008 34.3868 9.53996C34.3771 8.29716 34.3831 7.05436 34.3831 5.77681C24.1245 5.77681 13.8996 5.77681 3.62521 5.77681C3.62521 5.98414 3.62521 6.1723 3.62521 6.35926C3.62521 17.4905 3.62521 28.6229 3.62521 39.7542C3.62521 40.6962 3.74114 40.8148 4.67221 40.8148C14.2341 40.8148 23.7948 40.8148 33.3567 40.8148C34.2588 40.8148 34.3819 40.6902 34.3819 39.7806C34.3819 30.7862 34.3819 21.7918 34.3831 12.7962C34.3831 12.59 34.3831 12.3803 34.4133 12.1766C34.4701 11.7919 34.7092 11.5785 35.1005 11.5761C35.4893 11.5725 35.7345 11.7763 35.7985 12.1634C35.8238 12.3192 35.8287 12.481 35.8287 12.6392C35.8299 21.7139 35.8311 30.7874 35.8287 39.862C35.8287 41.0965 35.3251 41.8898 34.3433 42.1511C34.0233 42.2362 33.6767 42.247 33.3422 42.247C29.0189 42.253 24.6969 42.2506 20.3736 42.2506C20.184 42.2506 19.9944 42.2506 19.7324 42.2506C19.7324 42.9732 19.7239 43.6528 19.742 44.3311C19.7444 44.4234 19.8664 44.5456 19.963 44.5959C20.8941 45.0837 21.3928 45.8375 21.2986 46.8838C21.2057 47.9241 20.6031 48.6012 19.5923 48.9116C19.5512 48.9236 19.521 48.9667 19.4848 48.9967C19.1624 49.0003 18.8412 49.0003 18.5199 49.0003ZM19.0114 47.5573C19.4667 47.5513 19.864 47.1535 19.8652 46.7004C19.8664 46.2246 19.4474 45.8244 18.968 45.8435C18.5078 45.8615 18.1262 46.2654 18.1383 46.7208C18.1504 47.1738 18.5574 47.5633 19.0114 47.5573Z" fill="#61B0B8"/>
<path d="M19.0006 35.1159C22.0365 35.1159 25.0737 35.1159 28.1096 35.1171C28.2859 35.1171 28.4671 35.1051 28.6374 35.1387C28.9936 35.2106 29.2569 35.4551 29.1977 35.8002C29.1542 36.0507 28.9284 36.3036 28.7195 36.4797C28.5999 36.5816 28.3512 36.5493 28.1604 36.5493C22.0559 36.5517 15.9502 36.5517 9.84567 36.5505C9.67057 36.5505 9.48943 36.5493 9.32157 36.5061C8.96774 36.4162 8.7721 36.1693 8.7878 35.8074C8.8035 35.4251 9.02812 35.1902 9.41093 35.1315C9.56792 35.1075 9.73095 35.1171 9.89156 35.1171C12.9275 35.1159 15.9647 35.1159 19.0006 35.1159Z" fill="#61B0B8"/>
<path d="M19.0018 27.9911C15.9659 27.9911 12.9299 27.9911 9.894 27.9911C9.13562 27.9911 8.79748 27.779 8.78178 27.3008C8.76488 26.801 9.12716 26.5554 9.894 26.5554C15.9659 26.5542 22.0378 26.5542 28.1097 26.5554C28.8765 26.5554 29.2388 26.7998 29.2219 27.2996C29.2062 27.7778 28.868 27.9899 28.1097 27.9911C25.0737 27.9911 22.0378 27.9911 19.0018 27.9911Z" fill="#61B0B8"/>
<path d="M17.857 15.4409C19.0103 15.4409 20.143 15.4409 21.3144 15.4409C21.3144 15.8616 21.3144 16.2319 21.3144 16.6286C19.6998 16.6286 18.0985 16.6286 16.461 16.6286C16.4501 16.4836 16.432 16.3445 16.432 16.2055C16.4296 14.1645 16.4405 12.1224 16.4224 10.0814C16.4187 9.6991 16.5359 9.59483 16.9126 9.59963C18.34 9.62 19.7674 9.60802 21.2311 9.60802C21.2311 10.0227 21.2311 10.3954 21.2311 10.8197C20.0995 10.8197 18.9837 10.8197 17.8461 10.8197C17.8461 11.3913 17.8461 11.9114 17.8461 12.5035C18.8195 12.5035 19.7868 12.5035 20.7806 12.5035C20.7806 12.9002 20.7806 13.2262 20.7806 13.6037C19.8025 13.6037 18.846 13.6037 17.857 13.6037C17.857 14.2329 17.857 14.8117 17.857 15.4409Z" fill="#61B0B8"/>
<path d="M24.0267 23.4022C24.0267 23.9283 24.0267 24.4341 24.0267 24.9722C23.633 24.9722 23.2732 24.9722 22.8783 24.9722C22.8783 23.2812 22.8783 21.589 22.8783 19.9027C23.7405 19.9027 24.5907 19.844 25.4275 19.9207C26.1461 19.9866 26.7136 20.7692 26.7414 21.5386C26.7716 22.3739 26.2874 23.1002 25.5193 23.262C25.0568 23.3615 24.5701 23.3555 24.0267 23.4022ZM24.0521 22.3188C24.5351 22.2169 25.0882 22.5477 25.3973 22.0384C25.5314 21.8191 25.529 21.3732 25.3889 21.1623C25.0701 20.6841 24.5315 20.9418 24.0521 20.8974C24.0521 21.378 24.0521 21.8011 24.0521 22.3188Z" fill="#61B0B8"/>
<path d="M13.3236 22.9708C13.3236 23.6815 13.3236 24.313 13.3236 24.9758C12.9251 24.9758 12.5652 24.9758 12.174 24.9758C12.174 23.2836 12.174 21.6021 12.174 19.8788C13.3164 19.8788 14.46 19.8788 15.6338 19.8788C15.6338 20.2047 15.6338 20.5151 15.6338 20.8855C14.8754 20.8855 14.1303 20.8855 13.3574 20.8855C13.3574 21.2726 13.3574 21.6009 13.3574 21.9916C13.9661 21.9916 14.5807 21.9916 15.2232 21.9916C15.2232 22.344 15.2232 22.6352 15.2232 22.9708C14.6013 22.9708 13.9974 22.9708 13.3236 22.9708Z" fill="#61B0B8"/>
<path d="M19.0682 29.8403C19.9727 29.8223 20.6973 30.533 20.7251 31.4654C20.7516 32.3619 19.9631 33.1133 18.9849 33.1253C18.1227 33.1361 17.3884 32.4038 17.3631 31.5122C17.3365 30.5666 18.0575 29.8595 19.0682 29.8403ZM18.2978 31.4786C18.299 31.9843 18.6311 32.3595 19.0622 32.3427C19.4764 32.3283 19.7771 31.964 19.7783 31.4774C19.7795 30.9681 19.4595 30.6109 19.0115 30.6229C18.5888 30.6337 18.2966 30.9848 18.2978 31.4786Z" fill="#61B0B8"/>
<path d="M27.2474 30.6289C26.7136 30.6289 26.2861 30.6289 25.82 30.6289C25.82 30.3676 25.82 30.1399 25.82 29.8763C26.6279 29.8763 27.4358 29.8763 28.263 29.8763C28.3838 30.2322 28.3149 30.5342 28.0589 30.8302C27.6652 31.2856 27.3042 31.7698 26.8718 32.3127C27.3935 32.3127 27.8307 32.3127 28.3065 32.3127C28.3065 32.5884 28.3065 32.8173 28.3065 33.0809C27.4805 33.0809 26.64 33.0809 25.7681 33.0809C25.6715 32.7202 25.7149 32.4062 25.9975 32.1018C26.4105 31.6596 26.7837 31.1814 27.2474 30.6289Z" fill="#61B0B8"/>
<path d="M11.1306 33.1013C10.7888 33.1013 10.5376 33.1013 10.2309 33.1013C10.2309 32.2876 10.2309 31.4858 10.2309 30.6409C9.89761 30.6409 9.61623 30.6409 9.29742 30.6409C9.29742 30.37 9.29742 30.1423 9.29742 29.8763C10.1899 29.8763 11.0931 29.8763 12.0315 29.8763C12.0315 30.1016 12.0315 30.3305 12.0315 30.5989C11.7501 30.6121 11.4675 30.6253 11.1306 30.6409C11.1306 31.4486 11.1306 32.2516 11.1306 33.1013Z" fill="#61B0B8"/>
</svg>
