<svg width="235" height="94" viewBox="0 0 235 94" fill="none" xmlns="http://www.w3.org/2000/svg">
<path d="M51.2178 0.0177521C62.7351 0.154538 74.2524 0.462307 85.3226 4.04318C88.3011 5.00557 91.0034 6.76913 93.9819 7.73152C97.4125 8.83559 100.964 9.77843 104.54 10.223C114.435 11.4541 124.365 11.5713 134.209 9.75889C136.846 9.27526 139.534 8.43988 141.889 7.20881C148.695 3.66213 155.993 1.74712 163.568 1.15112C172.378 0.457422 181.248 0.0275225 190.083 0.139883C199.29 0.257128 208.366 1.77643 216.633 6.0852C229.331 12.6998 235.514 23.247 234.967 37.1113C234.334 53.1983 229.522 68.152 219.984 81.4447C214.75 88.7384 207.105 92.373 198.215 93.2816C187.215 94.4052 176.22 94.0486 165.245 92.4755C150.94 90.4286 141.086 82.8565 135.611 70.0133C133.074 64.0631 131.236 57.8344 129.086 51.7328C128.9 51.2003 128.735 50.658 128.564 50.1206C125.992 42.0991 121.873 40.6677 113.33 42.1968C110.296 42.7391 108.453 45.0009 107.468 47.7122C105.68 52.6463 104.108 57.6537 102.395 62.617C100.291 68.7138 97.6485 74.5663 93.575 79.6958C87.9947 86.7305 80.4655 90.5801 71.6003 92.0994C58.8525 94.2831 46.0343 94.7325 33.2413 92.671C24.7327 91.2933 18.0624 86.6621 13.5871 79.6274C4.97301 66.0953 -0.0548 51.3566 0.000450654 35.3135C0.0506786 20.3305 8.79536 8.98214 23.4318 3.90151C32.4427 0.765192 41.7398 -0.14346 51.2178 0.0177521ZM188.3 83.9997C188.315 83.7798 188.33 83.56 188.35 83.3402C189.772 83.3402 191.188 83.3353 192.609 83.3402C203.192 83.3988 210.732 78.7383 215.287 69.4759C219.989 59.9204 223.389 49.935 224.303 39.3634C225.032 30.9217 222.997 23.1493 215.599 17.712C209.2 13.0125 201.635 11.2587 193.835 10.8581C186.848 10.4966 179.826 10.6089 172.83 10.8288C165.245 11.0632 157.741 12.0159 150.574 14.6881C142.326 17.7609 137.64 24.4048 137.575 33.0419C137.484 45.3575 141.266 56.7694 146.365 67.81C150.001 75.6753 156.42 80.4921 165.2 81.7232C172.85 82.793 180.595 83.2669 188.3 83.9997ZM50.4694 83.7212C56.3562 83.1936 62.5392 82.9249 68.6319 82.0309C77.7583 80.6924 84.7952 76.1687 88.6276 67.7368C90.471 63.6771 92.1938 59.5345 93.5549 55.299C95.9157 47.9516 97.7841 40.487 97.4074 32.6657C97.0357 24.991 93.7659 19.0506 86.4879 15.6749C83.8057 14.4292 80.9377 13.2665 78.0345 12.8415C71.4597 11.8791 64.8196 11.3222 58.1945 10.7408C49.259 9.95919 40.3385 10.2034 31.5988 12.3188C24.4012 14.0579 17.8766 17.1063 13.9538 23.6671C10.6387 29.207 10.0561 35.2305 10.9602 41.5422C12.5072 52.319 15.7168 62.5438 21.2016 72.026C24.7076 78.0837 29.9765 82.0163 37.1942 82.8907C41.4837 83.4134 45.8435 83.4477 50.4694 83.7212ZM106.222 21.288C106.961 25.0399 107.709 28.8601 108.473 32.7585C114.6 30.6921 120.633 30.9119 126.494 32.6315C127.273 28.6891 128.011 24.9324 128.73 21.288C121.21 21.288 113.651 21.288 106.222 21.288Z" fill="#62B1B8"/>
</svg>
