<svg width="30" height="31" viewBox="0 0 30 31" fill="none" xmlns="http://www.w3.org/2000/svg">
<path fill-rule="evenodd" clip-rule="evenodd" d="M7.89474 3.1C7.89474 1.395 9.31579 0 11.0526 0H17.3684C19.1053 0 20.5263 1.395 20.5263 3.1V5.053C20.0526 3.906 18.9158 3.1 17.5895 3.1H13.0895C11.3526 3.1 9.93158 4.495 9.93158 6.2V11.067H6.31579C4.57895 11.067 3.15789 12.462 3.15789 14.167V18.6C3.15789 20.305 4.57895 21.7 6.31579 21.7H3.15789C1.42105 21.7 0 20.305 0 18.6V12.4C0 10.695 1.42105 9.3 3.15789 9.3H7.89474V3.1Z" fill="url(#paint0_linear_6_57)"/>
<path fill-rule="evenodd" clip-rule="evenodd" d="M22.1053 27.9C22.1053 29.605 20.6842 31 18.9474 31H12.6316C10.8947 31 9.47368 29.605 9.47368 27.9V25.947C9.94736 27.094 11.0842 27.9 12.4105 27.9H16.9263C18.6632 27.9 20.0842 26.505 20.0842 24.8V19.933H23.6842C25.421 19.933 26.8421 18.538 26.8421 16.833V12.4C26.8421 10.695 25.421 9.29999 23.6842 9.29999H26.8421C28.5789 9.29999 30 10.695 30 12.4V18.6C30 20.305 28.5789 21.7 26.8421 21.7H22.1053V27.9Z" fill="url(#paint1_linear_6_57)"/>
<path d="M14.2105 10.85C12.0789 10.85 10.2947 12.245 9.69473 14.1515C10.0737 13.8415 10.5316 13.64 11.0526 13.64C12.221 13.64 13.1684 14.57 13.1684 15.717C13.1684 16.864 12.221 17.8095 11.0526 17.8095C10.6263 17.8095 10.2632 17.6545 9.93157 17.453C10.6737 19.034 12.3 20.15 14.2105 20.15C16.8316 20.15 18.9474 18.073 18.9474 15.5C18.9474 12.927 16.8316 10.85 14.2105 10.85Z" fill="#15558F"/>
<path d="M8.19473 21.9635C8.19473 21.9635 16.8947 22.2425 20.6526 20.3515C24.4105 18.4605 23.8579 13.609 23.8579 13.609C23.8579 13.609 23.7316 19.0805 19.9895 20.057C16.2474 21.0335 8.19473 21.9635 8.19473 21.9635Z" fill="url(#paint2_linear_6_57)"/>
<path d="M20.7316 9.362C20.7316 9.362 12.0316 9.145 8.28947 11.0825C4.54736 13.02 5.13157 17.856 5.13157 17.856C5.13157 17.856 5.22631 12.3845 8.95262 11.377C12.6789 10.3695 20.7316 9.362 20.7316 9.362Z" fill="url(#paint3_linear_6_57)"/>
<defs>
<linearGradient id="paint0_linear_6_57" x1="13.1773" y1="1.11926" x2="-0.583358" y2="36.9421" gradientUnits="userSpaceOnUse">
<stop stop-color="#60B0B7"/>
<stop offset="1" stop-color="#15558F"/>
</linearGradient>
<linearGradient id="paint1_linear_6_57" x1="19.3307" y1="23.5033" x2="31.5768" y2="-4.56495" gradientUnits="userSpaceOnUse">
<stop stop-color="#61B0B8"/>
<stop offset="1" stop-color="#15558F"/>
</linearGradient>
<linearGradient id="paint2_linear_6_57" x1="8.7753" y1="23.1892" x2="24.7815" y2="15.5364" gradientUnits="userSpaceOnUse">
<stop stop-color="#15558F"/>
<stop offset="1" stop-color="#60B0B7"/>
</linearGradient>
<linearGradient id="paint3_linear_6_57" x1="20.1429" y1="8.14776" x2="4.2023" y2="15.9284" gradientUnits="userSpaceOnUse">
<stop stop-color="#15558F"/>
<stop offset="1" stop-color="#60B0B7"/>
</linearGradient>
</defs>
</svg>
