<svg width="29" height="24" viewBox="0 0 249 264" fill="none" xmlns="http://www.w3.org/2000/svg">
<path d="M111.044 59.9741L71.4725 49.371L62.6711 82.2183L102.243 92.8215L111.044 59.9741Z" stroke="#62B1B8" stroke-width="5" stroke-miterlimit="10"/>
<path d="M96.9782 112.469L57.4066 101.866L48.6052 134.713L88.1768 145.316L96.9782 112.469Z" stroke="#62B1B8" stroke-width="5" stroke-miterlimit="10"/>
<path d="M83.5715 162.985L43.9999 152.382L35.1985 185.23L74.7701 195.833L83.5715 162.985Z" stroke="#62B1B8" stroke-width="5" stroke-miterlimit="10"/>
<path d="M116.932 85.4429L205.553 109.189L116.932 85.4429Z" stroke="#62B1B8" stroke-width="5" stroke-miterlimit="10"/>
<path d="M105.674 132.402L194.296 156.148L105.674 132.402Z" stroke="#62B1B8" stroke-width="5" stroke-miterlimit="10"/>
<path d="M93.7219 177.009L182.343 200.755L93.7219 177.009Z" stroke="#62B1B8" stroke-width="5" stroke-miterlimit="10"/>
<path d="M148.657 251.41L43.5619 223.25C19.4994 216.803 5.22755 192.068 11.6724 168.016L45.0198 43.5619C51.4673 19.4993 76.1915 5.22483 100.254 11.6724L205.349 39.8326C229.402 46.2775 243.687 71.0043 237.239 95.0669L203.892 219.521C197.447 243.573 172.71 257.855 148.657 251.41Z" stroke="#62B1B8" stroke-width="5" stroke-miterlimit="10"/>
</svg>
