<svg width="40" height="39" viewBox="0 0 40 39" fill="none" xmlns="http://www.w3.org/2000/svg">
<g clip-path="url(#clip0_8_213)">
<path d="M40 18.9011C39.5111 20.4727 38.6347 21.7261 36.9653 22.0714C36.0516 22.2602 35.0773 22.2026 34.1333 22.1667C33.4542 22.1397 33.2676 22.3843 33.2871 23.0424C33.3298 24.4486 33.3067 25.8584 33.2978 27.2665C33.28 30.0573 31.6907 31.6649 28.944 31.6685C24.7396 31.6739 20.5333 31.6559 16.3289 31.6937C15.9253 31.6973 15.4187 31.9311 15.1413 32.2314C13.2178 34.3083 11.3564 36.441 9.43822 38.5234C9.2 38.7823 8.75378 38.8453 8.40356 38.9999C8.27022 38.6618 8.02489 38.3238 8.01956 37.9839C7.984 35.9213 8.00178 33.8588 8.00178 31.6721C7.008 31.6721 6.06933 31.6146 5.13778 31.6829C2.624 31.8699 0.837333 30.9348 0 28.4353C0 23.2186 0 18.0038 0 12.7871C0.967111 9.23381 3.76889 9.25359 6.70222 9.4532C6.70222 7.59563 6.68089 5.86573 6.70756 4.13763C6.74667 1.61292 8.35733 0.00530032 10.8444 0.00350209C19.1609 -0.00369083 27.4773 -9.43707e-05 35.7938 0.00709855C36.2027 0.00709855 36.6204 0.0448614 37.0169 0.140168C38.6596 0.532182 39.4738 1.75678 40 3.2529C40 8.46957 40 13.6844 40 18.9011ZM9.29956 36.4302C9.36711 36.4554 9.43467 36.4806 9.504 36.5058C11.0507 34.7795 12.6258 33.0765 14.1298 31.3125C14.72 30.6202 15.3369 30.3252 16.256 30.336C20.4889 30.3828 24.7236 30.3684 28.9582 30.3522C30.9707 30.345 31.9982 29.3056 32 27.3312C32.0053 22.7781 32.0053 18.2232 32 13.67C31.9982 11.8376 30.9707 10.7677 29.1413 10.7641C20.8498 10.7497 12.56 10.7515 4.26844 10.7623C2.35556 10.7641 1.30667 11.8125 1.296 13.7707C1.26933 18.2951 1.26756 22.8176 1.296 27.342C1.30844 29.2787 2.37511 30.3127 4.29333 30.3504C5.47733 30.3756 6.66133 30.354 7.84711 30.3558C9.29244 30.3576 9.29778 30.363 9.29956 31.7854C9.30133 33.3337 9.29956 34.882 9.29956 36.4302ZM33.2996 20.8827C34.0871 20.8827 34.7698 20.8288 35.44 20.8935C37.4133 21.0823 38.7413 19.8182 38.7236 17.6261C38.688 13.2816 38.7182 8.93531 38.7111 4.59079C38.7076 2.31962 37.6853 1.29103 35.4596 1.28924C29.4773 1.28744 23.4933 1.28924 17.5111 1.28924C15.2604 1.28924 13.0098 1.27485 10.7573 1.29463C9.34933 1.30722 8.11556 2.23151 8.04622 3.51724C7.94133 5.45034 8.01956 7.39243 8.01956 9.41903C8.44089 9.41903 8.78933 9.41903 9.13778 9.41903C15.6533 9.41903 22.1707 9.48017 28.6862 9.38846C31.2249 9.3525 33.4667 10.8792 33.3191 14.1016C33.2178 16.3098 33.2996 18.5289 33.2996 20.8827Z" fill="#355069"/>
<path d="M16.8871 21.5823C14.1618 21.5823 11.4382 21.5841 8.71289 21.5805C8.448 21.5805 8.14222 21.6345 7.92711 21.523C7.69955 21.4061 7.424 21.1256 7.41689 20.9098C7.41155 20.7012 7.68533 20.4027 7.90755 20.2948C8.15644 20.1761 8.48355 20.2103 8.77866 20.2103C14.2578 20.2067 19.7369 20.2031 25.216 20.2157C25.7707 20.2175 26.5956 20.0233 26.6062 20.8846C26.6169 21.7496 25.8009 21.5752 25.2391 21.5787C22.4551 21.5895 19.6711 21.5823 16.8871 21.5823Z" fill="#355069"/>
<path d="M17.0684 24.2923C19.8507 24.2923 22.6347 24.2923 25.4169 24.2923C25.6533 24.2923 25.936 24.224 26.1156 24.33C26.3378 24.4613 26.6133 24.7436 26.6062 24.954C26.5991 25.1608 26.3004 25.4072 26.0729 25.5421C25.9182 25.6338 25.6693 25.569 25.4613 25.569C19.808 25.569 14.1529 25.569 8.49955 25.569C8.41066 25.569 8.32177 25.5618 8.23288 25.569C7.75288 25.6068 7.31555 25.4288 7.41688 24.9199C7.46844 24.6627 7.96977 24.3318 8.27733 24.3211C9.81511 24.2599 11.3547 24.2923 12.8942 24.2923C14.2862 24.2923 15.6782 24.2923 17.0684 24.2923Z" fill="#355069"/>
<path d="M12.656 17.4824C11.2071 17.4824 9.75823 17.4752 8.30934 17.486C7.82045 17.4896 7.32267 17.4033 7.41867 16.817C7.45956 16.5689 7.97512 16.2272 8.27912 16.2218C11.2053 16.1769 14.1333 16.1769 17.0596 16.2218C17.3618 16.2272 17.8596 16.5725 17.9129 16.8332C18.0213 17.3655 17.5502 17.4842 17.0916 17.4824C15.6125 17.4788 14.1333 17.4824 12.656 17.4824Z" fill="#355069"/>
</g>
<defs>
<clipPath id="clip0_8_213">
<rect width="40" height="39" fill="white"/>
</clipPath>
</defs>
</svg>
