<svg width="47" height="48" viewBox="0 0 47 48" fill="none" xmlns="http://www.w3.org/2000/svg">
<path d="M24.2682 12.068L18.4372 8.70148L15.6427 13.5417L21.4738 16.9082L24.2682 12.068Z" stroke="#62B1B8" stroke-width="2" stroke-miterlimit="10"/>
<path d="M19.8023 19.8033L13.9712 16.4368L11.1767 21.277L17.0078 24.6435L19.8023 19.8033Z" stroke="#62B1B8" stroke-width="2" stroke-miterlimit="10"/>
<path d="M15.5251 27.2527L9.69403 23.8861L6.89954 28.7263L12.7306 32.0929L15.5251 27.2527Z" stroke="#62B1B8" stroke-width="2" stroke-miterlimit="10"/>
<path d="M24.1195 16.3617L37.1783 23.9012L24.1195 16.3617Z" stroke="#62B1B8" stroke-width="2" stroke-miterlimit="10"/>
<path d="M20.3349 23.3376L33.3936 30.8771L20.3349 23.3376Z" stroke="#62B1B8" stroke-width="2" stroke-miterlimit="10"/>
<path d="M16.5399 29.9107L29.5987 37.4502L16.5399 29.9107Z" stroke="#62B1B8" stroke-width="2" stroke-miterlimit="10"/>
<path d="M22.0962 44.0589L6.60993 35.1179C3.0642 33.0708 1.85065 28.5371 3.89692 24.9929L14.4849 6.65402C16.532 3.1083 21.0642 1.89389 24.6099 3.94102L40.0962 12.882C43.6404 14.9283 44.8563 19.4614 42.8092 23.0071L32.2213 41.3459C30.175 44.8902 25.6404 46.1052 22.0962 44.0589Z" stroke="#62B1B8" stroke-width="2" stroke-miterlimit="10"/>
</svg>
