<svg width="44" height="48" viewBox="0 0 44 48" fill="none" xmlns="http://www.w3.org/2000/svg">
<g clip-path="url(#clip0_8_186)">
<path d="M33.855 35.078C33.855 35.2796 33.855 35.433 33.855 35.5873C33.855 36.693 33.8575 37.7988 33.8541 38.9054C33.8507 40.0818 33.2566 40.6937 32.0992 40.698C30.3041 40.704 28.5089 40.7057 26.7147 40.692C26.3847 40.6894 26.2745 40.7781 26.2779 41.1263C26.295 42.8353 26.2856 44.5444 26.2847 46.2534C26.2839 47.3738 25.6522 48.0012 24.5298 48.0012C16.9655 48.0003 9.40122 48.0003 1.83695 48.0003C0.593189 47.9995 -5.36849e-05 47.4031 -5.36849e-05 46.162C0.000801132 35.764 0.000801132 25.3651 0.000801132 14.967C0.000801132 14.8231 -0.00176332 14.68 0.00165595 14.5361C0.0264456 13.5613 0.661575 12.9287 1.63094 12.927C3.42605 12.9227 5.22117 12.9262 7.01543 12.9262C7.17015 12.9262 7.32573 12.9262 7.52832 12.9262C7.53687 12.7469 7.55055 12.5961 7.55055 12.4444C7.55226 10.7638 7.54969 9.08323 7.5514 7.40351C7.55226 6.25727 8.17798 5.62296 9.326 5.62123C11.9614 5.61692 14.5968 5.62123 17.2322 5.62209C17.3724 5.62209 17.5134 5.62209 17.7152 5.62209C17.7152 5.43421 17.7152 5.28167 17.7152 5.12912C17.7152 3.99408 17.7126 2.85991 17.716 1.72487C17.7203 0.638091 18.3392 0.00205569 19.4043 0.00205569C27.0395 0.000332021 34.6756 0.000332021 42.3108 0.00205569C43.3605 0.00205569 43.9974 0.633782 43.9974 1.6835C44.0008 12.2539 44.0008 22.8244 43.9982 33.3956C43.9982 34.4488 43.3631 35.0754 42.3117 35.0771C39.6763 35.0814 37.0409 35.0788 34.4055 35.0788C34.2388 35.0779 34.0721 35.078 33.855 35.078ZM1.22917 30.4232C1.22917 35.6511 1.22917 40.879 1.22917 46.1069C1.22917 46.6964 1.27704 46.7464 1.86174 46.7464C9.38327 46.7472 16.9048 46.7464 24.4263 46.7455C25.0119 46.7455 25.064 46.6912 25.064 46.1069C25.064 35.7235 25.064 25.3401 25.064 14.9558C25.064 14.1715 25.0521 14.1603 24.2768 14.1603C16.8125 14.1594 9.34737 14.1577 1.88311 14.1569C1.2873 14.1569 1.23003 14.2155 1.23003 14.8248C1.22917 20.0251 1.22917 25.2237 1.22917 30.4232ZM33.8558 33.8386C34.0943 33.8386 34.2764 33.8386 34.4593 33.8386C36.9665 33.8386 39.4737 33.8386 41.9817 33.8386C42.7622 33.8386 42.7741 33.8274 42.7741 33.0526C42.7741 22.7106 42.7741 12.3694 42.7741 2.02737C42.7741 1.25344 42.7596 1.23707 41.9834 1.23707C34.7038 1.23707 27.4233 1.23707 20.1437 1.23707C19.9155 1.23707 19.6872 1.24655 19.4599 1.23879C19.0752 1.225 18.929 1.40944 18.9341 1.79037C18.947 2.79527 18.9384 3.80103 18.9384 4.8068C18.9384 5.06104 18.9384 5.31528 18.9384 5.62123C19.1402 5.62123 19.2932 5.62123 19.4453 5.62123C21.0695 5.62123 22.6936 5.62123 24.3178 5.62123C26.9104 5.62123 29.5031 5.61951 32.0966 5.62123C32.9301 5.62209 33.5225 5.96252 33.7387 6.66492C33.8473 7.01741 34.0217 7.05188 34.3209 7.05102C36.4006 7.0424 38.4804 7.04585 40.561 7.04585C40.726 7.04585 40.891 7.04585 41.0611 7.04585C41.0611 7.48797 41.0611 7.86632 41.0611 8.28603C38.6573 8.28603 36.2852 8.28603 33.8883 8.28603C33.8883 9.53828 33.8883 10.7474 33.8883 11.9997C36.3203 11.9997 38.7215 11.9997 41.1457 11.9997C41.1457 12.4341 41.1457 12.8245 41.1457 13.2709C38.7026 13.2709 36.2904 13.2709 33.89 13.2709C33.89 14.5275 33.89 15.7271 33.89 16.9742C36.3784 16.9742 38.8351 16.9742 41.3013 16.9742C41.3013 17.4025 41.3013 17.7809 41.3013 18.2084C38.8163 18.2084 36.3596 18.2084 33.8857 18.2084C33.8857 19.4701 33.8857 20.6818 33.8857 21.9384C36.4023 21.9384 38.8881 21.9384 41.3765 21.9384C41.3765 22.3745 41.3765 22.7649 41.3765 23.2018C38.8531 23.2018 36.369 23.2018 33.8798 23.2018C33.8798 24.4489 33.8798 25.6486 33.8798 26.8939C36.4288 26.8939 38.942 26.8939 41.4774 26.8939C41.4774 27.3223 41.4774 27.7041 41.4774 28.1126C41.3466 28.1186 41.2218 28.1298 41.097 28.1298C39.0736 28.1315 37.0511 28.1315 35.0278 28.1315C33.8575 28.1315 33.8575 28.1315 33.8575 29.3209C33.8558 30.7998 33.8558 32.277 33.8558 33.8386ZM26.2847 39.4664C26.4805 39.4664 26.607 39.4664 26.7326 39.4664C28.456 39.4664 30.1801 39.4664 31.9034 39.4664C32.5813 39.4664 32.6087 39.4388 32.6087 38.7692C32.6087 34.1739 32.6087 29.5794 32.6087 24.9841C32.6087 19.1529 32.6087 13.3226 32.6087 7.49142C32.6087 6.91485 32.5762 6.88296 32.0009 6.88296C24.4657 6.8821 16.9305 6.8821 9.39524 6.88296C8.83961 6.88296 8.77977 6.93898 8.77892 7.49831C8.77635 9.16424 8.77806 10.8302 8.78063 12.4961C8.78063 12.6331 8.79687 12.7693 8.80713 12.9262C9.02682 12.9262 9.19692 12.9262 9.36703 12.9262C14.4523 12.9262 19.5376 12.9287 24.623 12.9236C25.2453 12.9227 25.7428 13.1425 26.0548 13.6863C26.1838 13.9112 26.3309 13.9647 26.5651 13.9629C27.7328 13.9535 28.9013 13.9578 30.069 13.9595C30.2194 13.9595 30.3699 13.9733 30.5101 13.9793C30.5101 14.4077 30.5101 14.786 30.5101 15.2195C29.0868 15.2195 27.6986 15.2195 26.3112 15.2195C26.3112 16.4623 26.3112 17.6482 26.3112 18.884C27.7251 18.884 29.1125 18.884 30.522 18.884C30.522 19.3141 30.522 19.695 30.522 20.1397C29.1073 20.1397 27.708 20.1397 26.3121 20.1397C26.3121 21.4032 26.3121 22.6029 26.3121 23.8629C27.7798 23.8629 29.2202 23.8629 30.6614 23.8629C30.6614 24.3015 30.6614 24.679 30.6614 25.1031C29.1885 25.1031 27.7584 25.1031 26.3044 25.1031C26.3044 26.3501 26.3044 27.5489 26.3044 28.784C26.4813 28.7917 26.6335 28.8046 26.7856 28.8046C27.8396 28.8064 28.8936 28.8055 29.9476 28.8055C30.811 28.8055 30.7999 28.8055 30.7922 29.6777C30.7896 29.9716 30.7067 30.0759 30.4032 30.0715C29.1783 30.056 27.9533 30.0646 26.7284 30.0664C26.5925 30.0664 26.4557 30.0802 26.3112 30.0879C26.3112 31.329 26.3112 32.5278 26.3112 33.7861C27.8362 33.7861 29.3347 33.7861 30.8366 33.7861C30.8366 34.2247 30.8366 34.6022 30.8366 35.0116C29.5929 35.0116 28.3833 35.0116 27.1746 35.0116C26.2847 35.0116 26.2847 35.0116 26.2847 35.9217C26.2847 37.0843 26.2847 38.2443 26.2847 39.4664Z" fill="#355069"/>
<path d="M22.091 30.2117C22.091 30.6167 22.091 30.9977 22.091 31.4071C16.0825 31.4071 10.0988 31.4071 4.08517 31.4071C4.08517 31.008 4.08517 30.628 4.08517 30.2117C10.0697 30.2117 16.0526 30.2117 22.091 30.2117Z" fill="#355069"/>
<path d="M4.25357 41.3285C4.25357 40.9226 4.25357 40.5425 4.25357 40.1297C10.2561 40.1297 16.2441 40.1297 22.256 40.1297C22.256 40.5356 22.256 40.9174 22.256 41.3285C16.2629 41.3285 10.2869 41.3285 4.25357 41.3285Z" fill="#355069"/>
<path d="M21.8705 20.2868C21.8705 20.6875 21.8705 21.0547 21.8705 21.4571C15.8611 21.4571 9.87314 21.4571 3.8501 21.4571C3.8501 21.0762 3.8501 20.6979 3.8501 20.2868C9.8475 20.2868 15.8363 20.2868 21.8705 20.2868Z" fill="#355069"/>
<path d="M21.9423 25.2535C21.9423 25.6569 21.9423 26.0249 21.9423 26.4291C15.9287 26.4291 9.94494 26.4291 3.93045 26.4291C3.93045 26.0438 3.93045 25.6655 3.93045 25.2535C9.93469 25.2535 15.9201 25.2535 21.9423 25.2535Z" fill="#355069"/>
<path d="M4.16895 36.3566C4.16895 35.9541 4.16895 35.5749 4.16895 35.1741C10.1792 35.1741 16.1629 35.1741 22.1722 35.1741C22.1722 35.5766 22.1722 35.955 22.1722 36.3566C16.1612 36.3566 10.1775 36.3566 4.16895 36.3566Z" fill="#355069"/>
</g>
<defs>
<clipPath id="clip0_8_186">
<rect width="44" height="48" fill="white"/>
</clipPath>
</defs>
</svg>
