<svg width="47" height="43" viewBox="0 0 47 43" fill="none" xmlns="http://www.w3.org/2000/svg">
<path d="M0.0441768 21.5296C0.0441768 17.503 0.0888541 13.4759 0.0316672 9.44993C-0.026711 5.28621 3.38425 0.737218 8.6502 0.0863618C13.7714 -0.546399 17.902 2.3664 19.4674 6.57916C19.6569 7.08992 19.8004 7.61703 19.9583 8.13888C19.9887 8.23928 20 8.34902 20 8.45468C19.9917 16.3916 19.9863 24.328 19.9637 32.2649C19.9607 33.2748 19.9095 34.2887 19.7998 35.2921C19.6688 36.4905 19.0576 37.5243 18.4113 38.5161C16.2191 41.8824 12.2524 43.5431 8.15696 42.8415C4.26051 42.1737 1.05626 39.199 0.210972 35.3762C0.028093 34.5502 0.0727703 33.6752 0.028093 32.8218C0.00307379 32.3461 0.0018824 31.8692 0.0012867 31.3923C-0.000500385 28.1047 9.53114e-05 24.8171 9.53114e-05 21.5296C0.0149877 21.5296 0.0298801 21.5296 0.0441768 21.5296ZM17.4951 21.0282C17.5005 20.9715 17.5124 20.9062 17.5118 20.8408C17.4713 16.8341 17.4349 12.828 17.3813 8.82126C17.376 8.43833 17.3081 8.04198 17.1895 7.67657C16.1899 4.60616 13.2311 2.59697 10.3712 2.52751C8.03961 2.47089 6.08454 3.19471 4.50118 4.85133C3.14597 6.26979 2.50798 7.9696 2.51155 9.91925C2.5187 13.5372 2.49547 17.1551 2.48713 20.7731C2.48713 20.846 2.50619 20.9196 2.52168 21.0288C7.51897 21.0282 12.4972 21.0282 17.4951 21.0282Z" fill="#61B0B8"/>
<path d="M25 21.8047C25.0202 16.3018 29.4612 11.5777 35.1282 11.0534C36.583 10.9188 38.0177 11.0393 39.4278 11.4065C40.121 11.5872 40.1186 11.6031 39.7692 12.1847C36.2716 18.0005 32.7746 23.8169 29.2776 29.6328C28.9962 30.101 28.9742 30.1075 28.5606 29.732C26.5393 27.8957 25.4405 25.6148 25.0893 22.9797C25.0367 22.5918 25.0288 22.1968 25 21.8047Z" fill="#61B0B8"/>
<path d="M43.0392 13C44.9724 14.6365 46.1654 16.6325 46.7169 18.9873C47.37 21.7754 46.8849 24.4346 45.3467 26.8228C43.8311 29.1764 41.6769 30.8687 38.8252 31.6151C36.5749 32.2044 33.4091 32.1094 32 31.3823C35.674 25.2643 39.3475 19.1474 43.0392 13Z" fill="#61B0B8"/>
</svg>
