<svg width="81" height="174" viewBox="0 0 81 174" fill="none" xmlns="http://www.w3.org/2000/svg">
<path d="M0.178762 87.1197C0.178762 70.8262 0.359549 54.5304 0.128142 38.2393C-0.108086 21.3907 13.6944 2.98316 35.0031 0.349464C55.7261 -2.21101 72.4405 9.57567 78.7752 26.6227C79.5418 28.6895 80.1227 30.8224 80.7615 32.9341C80.8844 33.3404 80.9302 33.7844 80.9302 34.212C80.8965 66.3289 80.8748 98.4435 80.7832 130.56C80.7711 134.647 80.5638 138.75 80.1203 142.81C79.59 147.659 77.1168 151.843 74.5014 155.856C65.6308 169.478 49.5794 176.198 33.0072 173.359C17.2402 170.656 4.27419 158.619 0.8537 143.15C0.113679 139.808 0.294466 136.267 0.113679 132.814C0.0124381 130.889 0.00761715 128.959 0.00520666 127.029C-0.00202481 113.726 0.000385679 100.423 0.000385679 87.1197C0.060648 87.1197 0.12091 87.1197 0.178762 87.1197ZM70.7941 85.0907C70.8158 84.8616 70.864 84.5971 70.8616 84.3325C70.6977 68.1193 70.5507 51.9085 70.3337 35.6953C70.312 34.1458 70.0372 32.542 69.5575 31.0633C65.5127 18.6389 53.5398 10.5087 41.967 10.2276C32.5324 9.99848 24.6211 12.9274 18.2141 19.631C12.7302 25.3708 10.1486 32.2491 10.163 40.1384C10.1919 54.7784 10.0979 69.4185 10.0642 84.0585C10.0642 84.3538 10.1413 84.6514 10.204 85.0931C30.4256 85.0907 50.5701 85.0907 70.7941 85.0907Z" fill="#61B0B8"/>
</svg>
