<svg width="113" height="46" viewBox="0 0 113 46" fill="none" xmlns="http://www.w3.org/2000/svg">
<path d="M24.6282 0.00868719C30.1662 0.0756252 35.7043 0.226236 41.0275 1.97858C42.4597 2.44953 43.7591 3.31256 45.1913 3.78351C46.8409 4.3238 48.5484 4.78519 50.2681 5.00274C55.026 5.60518 59.8009 5.66256 64.5347 4.77563C65.8027 4.53896 67.0949 4.13016 68.2276 3.52771C71.5002 1.79211 75.0095 0.854975 78.6517 0.563316C82.8879 0.223845 87.1532 0.0134685 91.4016 0.0684533C95.8287 0.125829 100.193 0.869319 104.168 2.97787C110.274 6.2148 113.247 11.3762 112.984 18.1608C112.68 26.0332 110.366 33.351 105.779 39.8559C103.263 43.4252 99.5867 45.2038 95.3118 45.6484C90.0225 46.1983 84.7356 46.0238 79.4583 45.254C72.5798 44.2523 67.8412 40.5468 65.2086 34.2618C63.9889 31.35 63.1049 28.3019 62.0712 25.316C61.9819 25.0555 61.9021 24.7901 61.82 24.5271C60.5834 20.6017 58.603 19.9012 54.4947 20.6495C53.0359 20.9149 52.1495 22.0217 51.6761 23.3485C50.8163 25.7631 50.0604 28.2135 49.2368 30.6424C48.2248 33.6259 46.9544 36.4899 44.9957 39.0001C42.3123 42.4426 38.6919 44.3264 34.4291 45.0699C28.2993 46.1385 22.1357 46.3585 15.9841 45.3496C11.8927 44.6755 8.68533 42.4091 6.53337 38.9666C2.39128 32.3445 -0.0263507 25.132 0.000216697 17.2811C0.0243688 9.94898 4.22926 4.39552 11.2672 1.90925C15.6001 0.374455 20.0706 -0.070204 24.6282 0.00868719ZM90.5442 41.1062C90.5514 40.9986 90.5587 40.8911 90.5683 40.7835C91.2518 40.7835 91.9329 40.7811 92.6164 40.7835C97.7053 40.8122 101.331 38.5315 103.521 33.9988C105.782 29.3227 107.417 24.4363 107.856 19.2629C108.207 15.1319 107.228 11.3284 103.671 8.66759C100.594 6.3678 96.9566 5.50956 93.2057 5.31352C89.8462 5.13662 86.4697 5.1916 83.1053 5.29918C79.4583 5.41393 75.85 5.88011 72.4035 7.18779C68.4377 8.6915 66.1843 11.9428 66.1529 16.1694C66.1095 22.1962 67.9281 27.7808 70.3796 33.1836C72.1282 37.0326 75.2148 39.3897 79.4366 39.9922C83.115 40.5157 86.8392 40.7476 90.5442 41.1062ZM24.2683 40.97C27.0989 40.7118 30.072 40.5803 33.0017 40.1428C37.3901 39.4878 40.7739 37.274 42.6167 33.1478C43.5031 31.1612 44.3315 29.1339 44.986 27.0612C46.1211 23.4657 47.0196 19.8128 46.8385 15.9854C46.6597 12.2297 45.0874 9.32263 41.5878 7.6707C40.2981 7.06108 38.919 6.49211 37.523 6.28412C34.3615 5.81317 31.1686 5.54063 27.9829 5.25615C23.6862 4.87364 19.3968 4.99318 15.1943 6.02833C11.7333 6.87939 8.59596 8.37116 6.70968 11.5818C5.11564 14.2928 4.83547 17.2404 5.27021 20.3292C6.0141 25.6029 7.55742 30.6065 10.1948 35.2468C11.8807 38.2112 14.4142 40.1356 17.8849 40.5635C19.9475 40.8193 22.0439 40.8361 24.2683 40.97ZM51.0772 10.4175C51.4322 12.2536 51.7921 14.123 52.1592 16.0308C55.1057 15.0195 58.0064 15.1271 60.825 15.9686C61.1993 14.0394 61.5544 12.201 61.8997 10.4175C58.2842 10.4175 54.6493 10.4175 51.0772 10.4175Z" fill="#62B1B8"/>
</svg>
