<svg id="svg" version="1.1" xmlns="http://www.w3.org/2000/svg" xmlns:xlink="http://www.w3.org/1999/xlink" width="400" height="400" viewBox="0, 0, 400,400">
<g id="svgg">
<path id="path0" d="M127.500 99.075 C 111.515 99.160,102.800 99.346,102.800 99.603 C 102.800 99.832,104.279 100.017,106.300 100.041 C 110.271 100.087,110.718 99.865,101.400 102.475 C 81.579 108.028,65.685 113.799,60.400 117.361 C 55.888 120.403,46.863 131.573,24.600 161.666 C 19.626 168.389,20.000 167.440,20.000 173.349 C 20.000 178.435,20.019 178.551,20.700 177.599 C 21.859 175.978,27.783 167.362,31.837 161.400 C 33.932 158.320,36.770 154.180,38.144 152.200 C 39.518 150.220,42.779 145.450,45.389 141.600 C 53.235 130.029,55.415 127.606,60.901 124.361 C 67.457 120.483,77.968 118.284,79.357 120.500 C 80.238 121.906,79.202 122.564,75.357 123.041 C 64.789 124.352,58.044 128.854,50.982 139.312 C 47.890 143.891,38.670 157.325,34.175 163.800 C 32.953 165.560,30.539 169.070,28.811 171.600 C 27.082 174.130,25.068 177.075,24.334 178.145 C 22.370 181.008,21.627 181.700,20.763 181.474 C 20.026 181.282,20.000 181.646,20.000 192.069 L 20.000 202.864 27.619 192.532 C 31.809 186.849,38.154 178.243,41.719 173.407 C 63.774 143.483,66.597 140.026,71.810 136.565 C 75.218 134.302,76.210 133.866,77.310 134.142 C 77.844 134.276,79.253 134.106,80.441 133.764 C 82.274 133.236,87.092 133.110,112.400 132.927 L 142.200 132.713 144.249 134.870 C 146.326 137.055,147.836 139.616,149.095 143.088 C 150.259 146.299,150.048 158.650,148.778 161.600 C 147.912 163.613,147.847 164.207,148.016 168.600 C 148.353 177.393,148.229 182.926,147.660 184.400 C 146.794 186.642,146.235 187.763,145.700 188.329 C 145.425 188.619,145.200 189.005,145.200 189.186 C 145.200 190.076,140.782 193.697,138.600 194.595 C 137.883 194.890,137.872 194.941,138.500 195.091 C 138.885 195.183,139.200 195.425,139.200 195.629 C 139.200 195.833,139.909 196.000,140.776 196.000 C 141.643 196.000,142.464 196.180,142.600 196.400 C 142.736 196.620,143.377 196.800,144.024 196.800 C 144.671 196.800,145.200 196.980,145.200 197.200 C 145.200 197.420,145.729 197.600,146.376 197.600 C 147.023 197.600,147.664 197.780,147.800 198.000 C 147.936 198.220,148.487 198.400,149.024 198.400 C 149.561 198.400,150.000 198.580,150.000 198.800 C 150.000 199.020,150.540 199.200,151.200 199.200 C 151.860 199.200,152.400 199.380,152.400 199.600 C 152.400 199.820,152.850 200.000,153.400 200.000 C 153.950 200.000,154.400 200.180,154.400 200.400 C 154.400 200.620,154.839 200.800,155.376 200.800 C 155.913 200.800,156.464 200.980,156.600 201.200 C 156.736 201.420,157.287 201.600,157.824 201.600 C 158.361 201.600,158.800 201.780,158.800 202.000 C 158.800 202.220,159.239 202.400,159.776 202.400 C 160.313 202.400,160.864 202.580,161.000 202.800 C 161.136 203.020,161.597 203.200,162.024 203.200 C 162.451 203.200,162.800 203.380,162.800 203.600 C 162.800 203.820,163.162 204.000,163.605 204.000 C 164.383 204.000,164.769 204.142,166.695 205.138 C 167.187 205.392,167.862 205.600,168.195 205.600 C 168.528 205.600,168.800 205.780,168.800 206.000 C 168.800 206.220,169.160 206.400,169.600 206.400 C 170.040 206.400,170.400 206.580,170.400 206.800 C 170.400 207.020,170.715 207.200,171.100 207.200 C 171.775 207.201,177.992 213.206,178.008 213.873 C 178.012 214.053,178.660 214.920,179.447 215.800 L 180.879 217.400 180.675 215.400 C 180.562 214.300,180.242 211.870,179.964 210.000 C 179.070 204.002,179.147 203.421,180.845 203.279 C 181.934 203.188,182.403 202.912,182.745 202.160 C 183.292 200.961,183.335 200.368,182.816 201.188 C 182.560 201.592,182.449 201.132,182.460 199.711 C 182.469 198.576,182.329 197.412,182.149 197.124 C 181.970 196.836,181.786 196.359,181.741 196.063 C 181.636 195.369,181.555 195.303,180.600 195.138 C 180.160 195.062,179.565 194.685,179.277 194.300 C 178.990 193.915,178.484 193.600,178.154 193.600 C 177.823 193.600,177.664 193.420,177.800 193.200 C 177.936 192.980,177.812 192.791,177.524 192.780 C 177.236 192.770,176.280 192.051,175.400 191.183 C 174.520 190.316,173.564 189.604,173.276 189.603 C 172.988 189.601,172.856 189.432,172.983 189.228 C 173.109 189.023,173.042 188.749,172.832 188.620 C 171.557 187.832,170.636 183.143,171.567 182.180 C 171.769 181.971,171.989 181.080,172.056 180.200 C 172.122 179.320,172.387 178.183,172.644 177.674 C 173.143 176.686,172.954 175.200,172.330 175.200 C 172.122 175.200,172.055 175.035,172.180 174.832 C 172.305 174.630,172.181 174.221,171.904 173.923 C 171.627 173.625,171.341 173.115,171.270 172.790 C 171.198 172.466,170.972 172.140,170.768 172.066 C 170.563 171.992,170.488 171.782,170.601 171.598 C 170.715 171.415,170.581 171.021,170.304 170.723 C 170.027 170.425,169.755 169.960,169.700 169.690 C 169.645 169.421,169.555 168.975,169.500 168.700 C 169.445 168.425,169.310 168.110,169.200 168.000 C 168.722 167.522,168.000 165.961,168.000 165.405 C 168.000 165.072,167.809 164.800,167.576 164.800 C 167.343 164.800,167.255 164.635,167.380 164.432 C 167.505 164.230,167.381 163.821,167.104 163.523 C 166.827 163.225,166.542 162.715,166.470 162.390 C 166.399 162.066,166.172 161.740,165.968 161.666 C 165.763 161.592,165.688 161.382,165.801 161.198 C 165.915 161.015,165.737 160.594,165.407 160.264 C 164.953 159.810,164.928 159.616,165.304 159.464 C 165.696 159.305,165.696 159.257,165.300 159.232 C 165.025 159.214,164.800 158.840,164.800 158.400 C 164.800 157.960,164.609 157.600,164.376 157.600 C 164.143 157.600,164.044 157.452,164.156 157.271 C 164.268 157.091,164.098 156.440,163.780 155.826 C 163.051 154.421,163.054 154.089,163.804 153.339 C 164.136 153.007,164.305 152.570,164.180 152.368 C 164.055 152.165,164.244 152.000,164.600 152.000 C 164.956 152.000,165.136 151.820,165.000 151.600 C 164.853 151.361,165.337 151.200,166.200 151.200 C 167.063 151.200,167.547 151.361,167.400 151.600 C 167.264 151.820,167.534 152.000,168.000 152.000 C 168.466 152.000,168.756 152.147,168.645 152.327 C 168.534 152.507,168.838 153.099,169.321 153.642 C 169.805 154.185,170.256 154.881,170.325 155.189 C 170.394 155.497,170.826 156.076,171.286 156.475 C 171.786 156.908,171.913 157.200,171.602 157.200 C 171.316 157.200,171.646 157.740,172.337 158.400 C 173.028 159.060,173.388 159.600,173.137 159.600 C 172.886 159.600,173.246 160.140,173.937 160.800 C 174.628 161.460,174.969 162.003,174.696 162.006 C 174.350 162.010,174.370 162.120,174.764 162.369 C 175.074 162.565,175.541 162.644,175.802 162.544 C 176.063 162.444,176.792 163.046,177.424 163.881 C 180.137 167.474,179.958 167.970,180.022 156.683 C 180.051 151.468,180.238 147.100,180.438 146.977 C 180.637 146.854,180.800 146.398,180.800 145.964 C 180.800 145.530,181.069 145.072,181.398 144.946 C 181.726 144.819,181.896 144.555,181.774 144.358 C 181.652 144.161,182.361 144.000,183.349 144.000 C 184.795 144.000,185.196 144.156,185.400 144.800 C 185.540 145.240,185.798 145.600,185.975 145.600 C 186.151 145.600,186.320 146.708,186.351 148.063 C 186.382 149.418,186.567 150.723,186.763 150.963 C 186.959 151.203,187.140 153.005,187.166 154.966 C 187.191 156.928,187.387 158.743,187.600 159.000 C 187.814 159.258,187.967 160.404,187.942 161.548 C 187.897 163.543,188.314 164.747,188.688 163.700 C 188.786 163.425,189.132 163.200,189.457 163.200 C 189.782 163.200,189.960 163.058,189.852 162.885 C 189.745 162.712,190.200 162.330,190.864 162.036 C 192.280 161.409,193.495 161.869,195.260 163.700 C 196.044 164.513,196.710 164.800,197.808 164.800 C 199.243 164.800,201.509 166.581,201.625 167.800 C 202.151 173.306,202.434 174.961,203.164 176.800 C 205.119 181.729,204.215 188.200,201.118 191.460 C 199.620 193.036,199.449 195.339,200.760 196.257 C 201.222 196.581,201.600 197.102,201.600 197.416 C 201.600 197.730,202.099 199.025,202.710 200.294 C 203.320 201.562,204.070 203.368,204.376 204.306 C 204.849 205.758,205.056 205.973,205.763 205.748 C 206.467 205.525,206.518 205.576,206.096 206.085 C 205.683 206.582,205.860 206.984,207.135 208.442 C 216.056 218.642,218.067 224.185,215.291 230.925 L 213.696 234.800 283.348 234.802 C 321.657 234.803,354.755 234.920,356.900 235.062 L 360.800 235.321 360.800 242.260 L 360.800 249.200 376.400 249.200 L 392.000 249.200 392.000 242.200 C 392.000 238.350,391.955 235.165,391.900 235.123 C 391.845 235.081,388.523 234.946,384.518 234.823 L 377.235 234.600 377.032 201.200 C 376.921 182.830,376.716 158.889,376.577 147.998 C 376.300 126.159,376.334 125.780,378.972 121.669 C 380.837 118.761,383.943 116.187,385.192 116.514 C 387.249 117.052,380.239 109.785,375.923 106.905 C 367.373 101.200,364.246 100.619,336.400 99.563 C 325.572 99.152,177.901 98.807,127.500 99.075 M373.829 109.690 C 374.541 111.933,362.363 116.573,361.245 114.485 C 360.586 113.253,361.743 112.227,364.967 111.185 C 366.489 110.693,368.721 109.889,369.927 109.398 C 372.363 108.407,373.447 108.488,373.829 109.690 M165.582 119.778 C 165.846 120.096,166.003 120.771,165.931 121.278 L 165.800 122.200 146.000 122.494 C 115.113 122.953,101.195 122.771,100.645 121.900 C 99.191 119.593,101.022 119.484,144.651 119.291 C 162.074 119.213,165.173 119.286,165.582 119.778 M276.862 120.033 C 277.788 120.529,277.827 122.227,276.920 122.575 C 274.978 123.320,211.167 122.286,210.748 121.502 C 210.432 120.912,210.506 120.542,211.068 119.910 C 211.884 118.992,275.137 119.110,276.862 120.033 M391.361 170.800 C 391.361 174.210,391.422 175.605,391.497 173.900 C 391.572 172.195,391.572 169.405,391.497 167.700 C 391.422 165.995,391.361 167.390,391.361 170.800 M103.740 196.000 C 103.740 197.870,103.809 198.635,103.893 197.700 C 103.977 196.765,103.977 195.235,103.893 194.300 C 103.809 193.365,103.740 194.130,103.740 196.000 " stroke="none" fill="#28d674" fill-rule="evenodd"></path>
<path id="path1" d="M382.600 117.681 C 379.846 119.926,378.388 122.073,377.178 125.666 C 376.339 128.156,376.330 128.511,376.577 147.998 C 376.716 158.889,376.920 182.830,377.031 201.200 L 377.233 234.600 378.916 234.693 C 379.842 234.744,383.180 234.834,386.333 234.893 L 392.066 235.000 391.834 206.800 C 391.706 191.290,391.551 168.520,391.490 156.200 C 391.414 140.971,391.228 133.096,390.909 131.600 C 390.650 130.390,390.345 128.747,390.229 127.948 C 389.958 126.071,387.842 120.257,386.681 118.200 C 385.534 116.167,384.602 116.048,382.600 117.681 M75.009 134.524 C 66.953 139.380,65.840 140.679,41.719 173.407 C 38.154 178.243,31.809 186.849,27.619 192.532 L 20.000 202.864 20.000 217.832 L 20.000 232.800 31.581 232.800 C 39.425 232.800,43.487 232.652,44.167 232.342 C 45.066 231.933,45.916 229.649,52.244 210.642 C 56.134 198.959,63.431 177.183,68.458 162.251 C 73.486 147.319,77.600 134.854,77.600 134.551 C 77.600 133.881,76.103 133.865,75.009 134.524 M126.809 142.664 C 125.978 144.668,122.962 148.930,121.848 149.674 C 121.576 149.856,121.622 150.293,121.984 150.970 C 122.822 152.536,121.604 153.739,119.535 153.389 C 118.315 153.183,117.784 153.321,116.716 154.120 C 115.992 154.662,114.809 155.404,114.087 155.770 C 112.269 156.690,112.843 157.290,114.861 156.579 C 118.232 155.389,122.575 156.086,123.588 157.978 C 124.751 160.150,123.894 160.849,119.336 161.443 C 117.171 161.725,114.735 162.124,113.922 162.331 C 112.220 162.763,110.800 162.069,110.800 160.804 C 110.800 160.392,110.440 159.940,110.000 159.800 C 109.560 159.660,109.200 159.378,109.200 159.173 C 109.200 158.680,108.114 158.693,107.806 159.190 C 107.674 159.404,107.836 161.006,108.167 162.749 C 108.565 164.848,108.649 166.330,108.417 167.140 C 108.070 168.352,108.081 168.363,109.934 168.680 C 112.363 169.096,116.452 169.004,119.208 168.472 C 120.414 168.239,122.981 167.838,124.913 167.581 C 127.443 167.244,128.325 166.986,128.066 166.657 C 127.030 165.342,126.301 161.928,126.923 161.305 C 127.925 160.304,128.581 160.948,129.567 163.901 L 130.498 166.690 133.921 166.953 C 136.909 167.182,140.945 167.911,143.361 168.658 C 144.077 168.879,144.107 168.717,143.868 165.946 C 143.198 158.186,141.330 148.000,140.577 148.000 C 140.295 148.000,139.781 147.891,139.434 147.758 C 138.920 147.561,138.846 147.732,139.036 148.680 C 139.402 150.510,138.471 151.033,135.877 150.452 C 133.483 149.916,131.472 150.190,129.938 151.259 C 128.615 152.183,128.290 152.184,127.462 151.269 C 125.721 149.345,128.321 147.213,132.800 146.893 C 136.218 146.648,136.227 146.567,133.085 144.486 C 131.701 143.570,130.048 142.276,129.410 141.610 C 127.895 140.030,127.902 140.027,126.809 142.664 M181.562 144.724 C 179.776 146.618,179.192 166.141,180.852 168.472 C 181.775 169.769,181.223 171.102,179.971 170.601 C 178.740 170.108,174.746 164.271,174.985 163.316 C 175.118 162.786,175.034 162.400,174.784 162.400 C 174.547 162.400,174.444 162.253,174.555 162.073 C 174.666 161.893,174.351 161.308,173.855 160.773 C 173.359 160.238,172.964 159.679,172.977 159.532 C 172.989 159.385,172.640 158.832,172.200 158.304 C 171.760 157.776,171.349 157.112,171.286 156.829 C 171.223 156.546,170.920 156.063,170.612 155.755 C 170.304 155.447,169.938 154.836,169.799 154.398 C 169.660 153.959,169.390 153.600,169.200 153.600 C 169.010 153.600,168.745 153.258,168.613 152.840 C 168.331 151.954,166.823 151.479,165.414 151.832 C 164.523 152.056,164.022 152.814,163.753 154.344 C 163.618 155.113,164.876 158.941,165.380 159.294 C 165.611 159.456,165.663 159.591,165.495 159.594 C 165.327 159.597,165.822 160.856,166.595 162.390 C 167.368 163.925,168.000 165.455,168.000 165.790 C 168.000 166.126,168.180 166.400,168.400 166.400 C 168.620 166.400,168.800 166.760,168.800 167.200 C 168.800 167.640,169.010 168.000,169.267 168.000 C 169.523 168.000,169.622 168.111,169.486 168.247 C 168.836 168.897,172.437 174.884,173.325 174.630 C 177.179 173.529,179.057 173.018,182.085 172.249 C 186.237 171.194,185.874 171.499,186.723 168.348 C 187.283 166.267,187.574 165.777,188.306 165.672 C 189.611 165.486,189.735 166.323,188.866 169.458 C 188.182 171.926,188.161 172.330,188.682 173.021 C 189.110 173.587,189.218 174.484,189.081 176.305 C 188.882 178.936,189.110 179.409,190.382 179.006 C 191.220 178.740,192.312 176.200,193.410 171.960 C 194.690 167.022,194.036 164.400,191.525 164.400 C 190.872 164.400,190.275 164.141,190.145 163.800 C 189.889 163.133,188.800 162.971,188.800 163.600 C 188.800 163.820,188.638 164.000,188.441 164.000 C 187.975 164.000,187.200 159.529,187.200 156.844 C 187.200 155.695,187.024 153.549,186.809 152.077 C 186.594 150.605,186.316 148.563,186.191 147.540 C 185.806 144.400,183.304 142.877,181.562 144.724 M138.910 152.643 C 139.044 152.777,138.945 153.219,138.692 153.625 C 138.079 154.606,138.521 154.977,139.609 154.395 C 140.813 153.751,141.755 154.592,140.700 155.371 C 140.315 155.655,140.000 156.368,140.000 156.954 C 140.000 158.290,138.820 158.796,135.674 158.810 C 134.423 158.815,132.680 158.989,131.800 159.197 C 129.777 159.675,128.865 159.397,128.567 158.211 C 128.013 156.004,130.900 154.025,134.697 154.009 C 136.354 154.002,136.898 153.832,137.293 153.200 C 137.790 152.405,138.445 152.179,138.910 152.643 M96.133 164.439 C 89.465 166.369,93.599 180.800,100.820 180.800 C 101.883 180.800,102.864 180.620,103.000 180.400 C 103.136 180.180,104.139 180.000,105.229 180.000 C 106.319 180.000,107.523 179.833,107.905 179.629 C 108.287 179.425,108.915 179.161,109.301 179.042 C 112.663 178.001,111.419 173.520,106.800 170.033 C 104.930 168.622,103.449 167.303,103.510 167.104 C 103.570 166.904,103.463 166.838,103.270 166.956 C 103.078 167.075,102.547 166.824,102.091 166.399 C 99.785 164.250,98.380 163.788,96.133 164.439 M196.826 167.700 C 194.751 172.942,194.547 180.351,196.478 180.394 C 198.218 180.432,200.436 174.017,199.773 170.861 C 199.650 170.277,199.471 169.408,199.374 168.928 C 198.989 167.015,197.401 166.249,196.826 167.700 M99.029 168.602 C 101.016 171.207,99.420 177.591,97.309 175.481 C 96.735 174.906,96.700 174.651,97.108 173.999 C 97.882 172.760,97.719 170.494,96.800 169.707 C 96.005 169.027,95.756 167.978,96.267 167.467 C 96.900 166.833,98.036 167.300,99.029 168.602 M183.400 174.271 C 182.960 174.379,180.773 174.992,178.540 175.633 C 176.307 176.275,174.142 176.800,173.728 176.800 C 172.048 176.800,170.985 186.637,172.500 188.155 C 172.885 188.541,173.200 189.024,173.200 189.229 C 173.200 189.433,173.394 189.600,173.631 189.600 C 173.869 189.600,174.754 190.320,175.600 191.200 C 176.446 192.080,177.331 192.800,177.569 192.800 C 177.806 192.800,178.000 192.980,178.000 193.200 C 178.000 193.420,178.188 193.600,178.417 193.600 C 178.646 193.600,179.220 193.960,179.692 194.400 C 180.164 194.840,180.765 195.200,181.027 195.200 C 181.631 195.200,182.192 196.700,182.825 200.000 C 183.098 201.430,183.363 202.653,183.411 202.717 C 183.491 202.821,185.593 202.095,187.800 201.202 C 188.240 201.024,189.680 200.483,191.000 200.000 C 192.320 199.517,193.760 198.971,194.200 198.787 C 194.640 198.603,195.720 198.224,196.600 197.945 C 197.480 197.665,198.371 197.293,198.580 197.118 C 198.789 196.943,199.296 196.800,199.707 196.800 C 200.231 196.800,200.392 196.591,200.246 196.100 C 200.132 195.715,199.921 194.911,199.779 194.312 L 199.520 193.225 197.983 194.009 C 195.596 195.226,193.875 193.520,196.200 192.242 C 200.131 190.080,201.748 187.320,201.773 182.728 C 201.793 179.030,201.564 178.706,200.135 180.404 C 198.012 182.927,195.187 183.239,193.561 181.130 C 192.944 180.330,192.886 180.325,191.855 181.001 C 191.069 181.516,190.367 181.633,189.194 181.445 C 187.195 181.126,187.198 181.379,189.214 183.105 C 192.027 185.513,193.461 190.222,191.800 191.600 C 190.838 192.398,190.000 191.394,190.000 189.444 C 190.000 186.014,187.210 183.600,183.246 183.600 C 179.019 183.600,178.756 182.235,182.626 180.388 C 187.822 177.908,188.439 173.037,183.400 174.271 M103.384 175.502 C 103.700 176.326,102.652 177.382,101.831 177.067 C 101.099 176.787,100.996 175.564,101.649 174.911 C 102.203 174.357,103.056 174.647,103.384 175.502 M106.649 186.904 C 106.980 189.317,106.199 191.927,104.980 192.482 C 104.048 192.907,104.000 193.100,104.000 196.465 L 104.000 200.001 105.590 201.543 C 106.876 202.792,107.566 203.132,109.207 203.326 C 112.252 203.687,119.028 205.463,122.619 206.841 C 124.368 207.513,126.092 208.153,126.449 208.265 C 126.819 208.380,127.541 208.023,128.130 207.433 C 128.699 206.865,129.276 206.400,129.413 206.400 C 129.550 206.400,130.354 205.680,131.200 204.800 C 132.046 203.920,132.854 203.200,132.997 203.200 C 134.053 203.200,134.467 201.862,134.209 199.289 L 133.939 196.600 128.060 196.600 C 122.560 196.600,122.107 196.542,121.030 195.695 C 120.397 195.197,119.187 194.679,118.340 194.544 C 117.493 194.409,116.800 194.141,116.800 193.949 C 116.800 193.757,116.530 193.600,116.200 193.600 C 115.870 193.600,115.600 193.420,115.600 193.200 C 115.600 192.980,115.330 192.800,115.000 192.800 C 114.670 192.800,114.400 192.620,114.400 192.400 C 114.400 192.180,114.202 192.000,113.960 192.000 C 113.719 192.000,113.017 191.460,112.400 190.800 C 111.783 190.140,111.081 189.600,110.840 189.600 C 110.598 189.600,110.400 189.425,110.400 189.211 C 110.400 188.830,106.958 185.200,106.597 185.200 C 106.497 185.200,106.520 185.967,106.649 186.904 M75.600 201.148 C 75.600 201.339,76.455 201.717,77.500 201.986 C 85.716 204.106,85.799 204.139,85.819 205.250 C 85.857 207.258,93.121 212.800,95.716 212.800 C 97.860 212.800,98.159 210.968,96.393 208.635 C 94.461 206.081,91.587 203.200,90.973 203.200 C 90.658 203.200,90.400 203.059,90.400 202.887 C 90.400 202.715,89.545 202.339,88.500 202.052 C 87.455 201.765,86.078 201.365,85.440 201.165 C 83.961 200.700,75.600 200.685,75.600 201.148 M73.254 203.422 C 72.514 203.740,71.645 204.000,71.323 204.000 C 70.706 204.000,67.600 207.016,67.600 207.614 C 67.600 207.807,67.150 208.414,66.600 208.964 C 66.050 209.514,65.600 210.214,65.600 210.520 C 65.600 210.826,65.222 211.418,64.759 211.837 C 62.975 213.452,61.600 218.147,61.600 222.625 C 61.600 225.877,61.953 225.853,64.200 222.442 C 66.723 218.613,66.634 218.657,69.424 219.804 C 72.434 221.042,73.626 221.049,74.763 219.839 C 75.942 218.585,75.761 217.078,74.400 216.803 C 71.075 216.129,65.246 212.308,66.056 211.333 C 67.477 209.621,74.596 213.772,76.968 217.696 L 78.839 220.792 84.320 220.545 C 89.252 220.322,91.525 219.839,90.100 219.317 C 89.825 219.216,89.600 218.882,89.600 218.574 C 89.600 218.267,89.072 216.887,88.426 215.508 C 87.781 214.128,86.681 211.517,85.983 209.704 L 84.713 206.408 82.057 205.647 C 80.595 205.229,78.512 204.676,77.426 204.419 C 76.341 204.162,75.261 203.702,75.026 203.398 C 74.664 202.927,74.398 202.931,73.254 203.422 M76.521 208.244 C 80.123 209.049,80.927 209.768,82.858 213.907 C 84.570 217.580,84.692 218.203,83.764 218.559 C 82.780 218.936,82.474 218.570,80.762 214.969 C 79.062 211.389,78.681 211.025,76.193 210.598 C 72.691 209.997,71.600 209.582,71.600 208.851 C 71.600 207.382,72.288 207.297,76.521 208.244 " stroke="none" fill="#c4edad" fill-rule="evenodd"></path><path id="path2" d="M63.022 89.846 C 44.476 93.194,28.617 106.920,22.639 124.800 C 20.179 132.156,19.978 134.292,20.095 151.765 L 20.200 167.320 21.989 164.760 C 22.973 163.352,28.045 156.530,33.260 149.600 C 51.136 125.847,56.318 119.610,60.400 116.934 C 65.357 113.685,82.580 107.458,100.400 102.472 C 102.710 101.825,105.590 101.019,106.800 100.681 L 109.000 100.065 105.900 100.032 C 104.195 100.015,102.800 99.850,102.800 99.666 C 102.800 97.646,343.840 98.772,360.400 100.869 C 369.501 102.022,376.781 105.905,383.179 113.021 C 384.280 114.246,384.678 114.542,384.223 113.800 C 376.730 101.570,363.003 92.317,348.648 89.818 C 343.468 88.917,68.021 88.943,63.022 89.846 M367.200 110.647 C 361.898 112.551,361.023 113.073,361.416 114.098 C 362.073 115.809,373.600 112.188,373.600 110.271 C 373.600 108.486,373.143 108.513,367.200 110.647 M72.868 120.240 C 67.038 121.218,60.860 124.153,56.319 128.103 C 53.592 130.475,51.622 133.031,44.988 142.800 C 42.373 146.650,39.178 151.330,37.888 153.200 C 36.597 155.070,33.566 159.480,31.153 163.000 C 28.739 166.520,25.242 171.616,23.382 174.325 C 20.014 179.230,19.446 180.612,20.615 181.061 C 21.444 181.379,22.290 180.544,24.621 177.105 C 25.704 175.507,28.583 171.320,31.019 167.800 C 33.455 164.280,36.558 159.780,37.914 157.800 C 39.271 155.820,41.995 151.860,43.968 149.000 C 45.941 146.140,48.950 141.730,50.656 139.200 C 57.883 128.480,66.679 122.800,76.052 122.800 C 78.039 122.800,79.200 122.210,79.200 121.200 C 79.200 119.575,77.956 119.387,72.868 120.240 M101.500 120.032 C 101.115 120.256,100.800 120.782,100.800 121.200 C 100.800 121.618,101.115 122.137,101.500 122.354 C 102.177 122.735,162.722 122.567,164.656 122.179 C 165.700 121.969,166.177 120.896,165.558 120.149 C 164.983 119.457,102.683 119.343,101.500 120.032 M211.287 120.073 C 209.150 122.210,210.053 122.277,244.261 122.520 C 279.410 122.770,278.668 122.814,277.029 120.572 C 276.324 119.608,212.239 119.121,211.287 120.073 M391.502 137.600 C 391.617 140.570,391.776 143.075,391.856 143.167 C 392.137 143.491,391.936 135.774,391.617 134.000 C 391.419 132.900,391.375 134.300,391.502 137.600 M87.000 133.193 C 84.140 133.326,80.894 133.659,79.786 133.933 L 77.773 134.429 61.386 183.396 C 47.482 224.947,44.879 232.387,44.200 232.527 C 43.732 232.623,43.942 232.714,44.705 232.746 C 45.423 232.775,46.323 232.626,46.705 232.414 C 48.048 231.667,60.917 225.600,61.157 225.600 C 61.291 225.600,61.340 224.736,61.267 223.681 C 61.194 222.625,61.434 220.419,61.801 218.780 C 62.168 217.141,62.570 215.262,62.694 214.605 C 62.817 213.948,63.432 212.931,64.059 212.345 C 64.687 211.759,65.200 211.024,65.200 210.712 C 65.200 210.399,65.874 209.347,66.698 208.372 C 67.522 207.397,68.377 206.366,68.598 206.081 C 69.687 204.674,70.546 204.120,72.629 203.478 C 74.561 202.883,74.964 202.863,75.349 203.339 C 75.597 203.646,76.700 204.103,77.800 204.354 C 78.900 204.605,80.923 205.120,82.296 205.499 L 84.791 206.187 86.225 209.794 C 87.013 211.777,88.320 214.880,89.129 216.690 L 90.600 219.979 94.900 219.990 C 97.265 219.995,99.200 219.915,99.200 219.811 C 99.200 219.707,98.854 218.852,98.431 217.911 C 98.008 216.970,97.380 215.547,97.036 214.749 C 96.513 213.539,96.113 213.223,94.639 212.851 C 93.202 212.490,89.686 210.309,88.800 209.231 C 88.690 209.097,87.970 208.471,87.200 207.841 C 86.316 207.118,85.726 206.236,85.600 205.448 C 85.402 204.212,85.353 204.189,80.507 203.000 C 75.627 201.803,74.522 201.100,76.750 200.611 C 78.261 200.279,84.799 200.514,84.800 200.900 C 84.800 201.065,85.520 201.200,86.400 201.200 C 87.280 201.200,88.000 201.380,88.000 201.600 C 88.000 201.820,88.540 202.000,89.200 202.000 C 89.860 202.000,90.400 202.180,90.400 202.400 C 90.400 202.620,90.670 202.800,91.000 202.800 C 91.330 202.800,91.600 203.010,91.600 203.267 C 91.600 203.523,91.722 203.611,91.871 203.462 C 92.275 203.059,89.935 198.393,89.473 198.679 C 89.254 198.814,89.201 198.722,89.355 198.473 C 89.620 198.044,82.738 183.883,81.815 182.959 C 81.573 182.716,81.038 181.771,80.626 180.859 C 80.215 179.946,79.748 179.200,79.588 179.200 C 79.428 179.200,79.073 178.660,78.800 178.000 C 78.527 177.340,78.167 176.800,78.000 176.800 C 77.833 176.800,77.473 176.260,77.200 175.600 C 76.927 174.940,76.557 174.400,76.378 174.400 C 76.200 174.400,75.944 174.053,75.809 173.628 C 75.671 173.194,75.045 172.742,74.381 172.596 C 72.658 172.217,72.307 168.242,73.605 163.800 C 73.798 163.140,74.245 161.590,74.598 160.355 C 75.358 157.698,76.467 156.604,78.705 156.303 C 80.479 156.065,80.800 156.367,80.800 158.274 C 80.800 159.568,82.721 165.293,84.530 169.388 C 86.008 172.733,86.039 173.200,84.785 173.200 C 84.111 173.200,84.073 173.322,84.473 174.200 C 84.723 174.750,85.058 175.200,85.216 175.200 C 85.374 175.200,85.727 175.740,86.000 176.400 C 86.273 177.060,86.624 177.600,86.780 177.600 C 86.936 177.600,87.485 178.500,88.000 179.600 C 88.515 180.700,89.041 181.600,89.169 181.600 C 89.297 181.600,89.847 182.455,90.391 183.500 C 90.935 184.545,91.488 185.490,91.620 185.600 C 91.752 185.710,92.296 186.610,92.830 187.600 C 93.363 188.590,94.013 189.626,94.274 189.902 C 94.534 190.179,94.862 190.764,95.001 191.202 C 95.140 191.641,95.422 192.000,95.627 192.000 C 95.832 192.000,96.000 192.278,96.000 192.617 C 96.000 192.956,96.225 193.502,96.500 193.831 C 97.554 195.089,97.819 195.472,98.429 196.618 C 99.512 198.653,100.191 199.793,100.444 200.000 C 100.805 200.295,102.080 202.856,101.929 202.982 C 101.858 203.041,99.822 203.307,97.405 203.573 C 94.988 203.839,92.973 204.093,92.929 204.138 C 92.884 204.183,93.799 205.205,94.962 206.409 C 97.911 209.466,98.920 211.911,97.500 212.563 C 97.225 212.689,97.365 212.705,97.811 212.598 C 99.039 212.302,107.375 212.213,107.815 212.491 C 108.027 212.624,108.558 213.424,108.996 214.267 C 109.434 215.110,109.904 215.890,110.040 216.000 C 110.177 216.110,110.568 216.740,110.910 217.400 C 112.051 219.602,113.098 220.400,114.845 220.400 C 117.131 220.400,121.907 222.093,126.768 224.627 C 129.061 225.822,130.999 226.800,131.076 226.800 C 131.153 226.800,130.823 226.035,130.342 225.100 C 129.451 223.367,128.704 220.400,129.159 220.400 C 129.297 220.400,129.588 220.009,129.805 219.531 C 131.162 216.548,140.843 215.542,149.796 217.456 C 154.937 218.554,159.159 222.528,160.787 227.800 C 161.059 228.680,161.835 230.627,162.512 232.127 L 163.744 234.855 175.372 234.873 C 181.767 234.883,188.440 234.898,190.200 234.907 C 191.960 234.916,197.920 234.895,203.445 234.862 L 213.490 234.800 215.170 230.583 C 217.772 224.050,216.351 219.960,207.939 209.765 C 206.653 208.206,205.600 206.740,205.600 206.508 C 205.600 206.276,205.330 205.982,205.000 205.855 C 204.670 205.729,204.400 205.428,204.400 205.187 C 204.400 204.946,203.950 203.765,203.400 202.563 C 202.850 201.360,202.400 200.219,202.400 200.026 C 202.400 199.357,200.619 196.343,200.477 196.770 C 200.398 197.007,199.898 197.200,199.367 197.200 C 198.835 197.200,198.400 197.380,198.400 197.600 C 198.400 197.820,197.860 198.000,197.200 198.000 C 196.540 198.000,196.000 198.180,196.000 198.400 C 196.000 198.620,195.550 198.800,195.000 198.800 C 194.450 198.800,194.000 198.980,194.000 199.200 C 194.000 199.420,193.460 199.600,192.800 199.600 C 192.140 199.600,191.600 199.780,191.600 200.000 C 191.600 200.220,191.150 200.400,190.600 200.400 C 190.050 200.400,189.600 200.580,189.600 200.800 C 189.600 201.020,189.150 201.200,188.600 201.200 C 188.050 201.200,187.600 201.380,187.600 201.600 C 187.600 201.820,187.060 202.000,186.400 202.000 C 185.740 202.000,185.200 202.180,185.200 202.400 C 185.200 202.620,184.890 202.800,184.512 202.800 C 184.133 202.800,182.855 203.025,181.671 203.300 L 179.519 203.800 179.752 206.000 C 179.881 207.210,180.162 209.280,180.379 210.600 C 181.315 216.322,181.354 217.200,180.670 217.200 C 180.317 217.200,179.813 216.799,179.551 216.308 C 179.288 215.818,178.877 215.219,178.637 214.979 C 178.397 214.738,177.750 213.953,177.200 213.234 C 175.287 210.733,172.592 208.151,171.300 207.579 C 170.585 207.263,170.000 206.869,170.000 206.702 C 170.000 206.536,169.676 206.400,169.280 206.400 C 168.884 206.400,168.389 206.247,168.180 206.061 C 167.824 205.743,161.777 203.331,156.800 201.522 C 155.590 201.082,154.240 200.572,153.800 200.388 C 151.180 199.294,145.641 197.476,142.100 196.548 C 138.134 195.509,136.179 194.000,138.800 194.000 C 139.240 194.000,139.600 193.820,139.600 193.600 C 139.600 193.380,139.870 193.200,140.200 193.200 C 140.530 193.200,140.800 193.020,140.800 192.800 C 140.800 192.580,140.985 192.400,141.211 192.400 C 142.100 192.400,145.092 188.858,146.279 186.398 C 148.198 182.424,148.601 179.648,148.067 174.084 C 147.194 164.994,147.194 164.796,148.033 162.429 C 150.120 156.538,150.549 145.314,148.759 143.420 C 148.562 143.211,148.400 142.733,148.400 142.358 C 148.400 140.826,146.550 137.958,143.373 134.565 L 141.747 132.828 116.973 132.889 C 103.348 132.922,89.860 133.059,87.000 133.193 M131.385 143.000 C 133.217 144.430,134.914 145.600,135.157 145.600 C 135.401 145.600,135.600 145.870,135.600 146.200 C 135.600 146.632,135.157 146.800,134.014 146.800 C 132.161 146.800,128.904 147.814,127.900 148.704 C 126.120 150.281,127.835 152.324,129.838 151.012 C 131.184 150.130,134.375 149.798,136.084 150.362 C 138.031 151.004,138.800 150.607,138.800 148.957 C 138.800 147.469,139.819 147.077,140.894 148.151 C 141.562 148.819,143.038 157.054,144.220 166.711 L 144.478 168.822 142.739 168.578 C 141.783 168.443,140.730 168.231,140.400 168.107 C 139.580 167.797,135.923 167.229,132.912 166.944 L 130.423 166.708 129.612 164.539 C 129.165 163.346,128.800 162.219,128.800 162.034 C 128.800 161.849,128.511 161.458,128.157 161.164 C 126.907 160.127,126.361 161.690,127.195 163.916 C 128.678 167.871,128.763 167.600,126.027 167.600 C 124.676 167.600,123.600 167.777,123.600 168.000 C 123.600 168.226,122.467 168.400,121.000 168.400 C 119.533 168.400,118.400 168.574,118.400 168.800 C 118.400 169.350,111.475 169.315,109.609 168.756 C 108.132 168.313,108.127 168.303,108.306 166.434 C 108.406 165.393,108.200 163.437,107.842 162.042 C 107.013 158.804,107.707 157.847,109.759 159.400 C 110.176 159.716,110.649 159.893,110.810 159.794 C 110.971 159.694,111.205 160.127,111.331 160.756 C 111.620 162.200,112.212 162.421,114.427 161.913 C 115.402 161.689,117.460 161.431,119.000 161.338 C 123.564 161.066,124.872 159.635,122.618 157.382 C 121.568 156.332,115.572 155.874,115.000 156.800 C 114.602 157.444,112.800 157.280,112.800 156.600 C 112.800 156.270,112.993 156.000,113.228 156.000 C 113.463 156.000,114.498 155.416,115.528 154.703 C 116.900 153.752,117.988 153.352,119.600 153.203 C 121.861 152.994,122.804 151.844,121.655 150.695 C 121.371 150.411,121.803 149.644,123.039 148.241 C 124.028 147.118,125.486 144.895,126.279 143.300 C 128.006 139.828,127.371 139.865,131.385 143.000 M391.784 166.800 C 391.784 176.370,391.836 180.285,391.900 175.500 C 391.963 170.715,391.963 162.885,391.900 158.100 C 391.836 153.315,391.784 157.230,391.784 166.800 M137.623 153.157 C 137.257 153.841,136.796 154.000,135.180 154.000 C 134.085 154.000,132.877 154.159,132.495 154.353 C 132.113 154.548,131.325 154.927,130.744 155.197 C 129.092 155.965,128.532 157.332,129.356 158.589 C 129.902 159.423,130.169 159.538,130.787 159.207 C 131.205 158.983,132.901 158.800,134.555 158.800 C 138.286 158.800,139.600 158.274,139.600 156.779 C 139.600 156.176,139.869 155.582,140.200 155.455 C 141.442 154.979,140.810 154.362,139.358 154.634 C 137.961 154.896,137.931 154.877,138.395 154.009 C 138.714 153.413,138.741 152.981,138.474 152.714 C 138.207 152.447,137.924 152.595,137.623 153.157 M190.641 162.600 C 189.572 163.409,190.463 164.400,192.259 164.400 C 194.777 164.400,195.055 168.365,192.976 174.600 C 191.771 178.213,191.081 179.200,189.762 179.200 C 188.498 179.200,188.287 178.672,188.828 176.866 C 189.219 175.559,189.182 175.082,188.591 173.838 C 187.922 172.429,187.923 172.221,188.598 169.353 C 189.109 167.182,189.185 166.225,188.870 165.910 C 188.112 165.152,187.381 166.215,186.823 168.888 L 186.298 171.400 182.049 172.513 C 179.712 173.125,176.610 173.935,175.155 174.313 C 172.703 174.950,172.543 175.058,172.955 175.800 C 173.200 176.240,173.432 176.662,173.471 176.738 C 173.510 176.813,176.276 176.107,179.617 175.169 C 185.891 173.407,186.822 173.383,187.135 174.975 C 187.548 177.075,185.988 178.989,182.375 180.813 C 178.929 182.552,179.497 183.600,183.885 183.600 C 187.722 183.600,190.400 186.215,190.400 189.964 C 190.400 191.380,190.998 191.866,191.860 191.150 C 193.506 189.785,190.198 182.400,187.941 182.400 C 187.753 182.400,187.600 182.130,187.600 181.800 C 187.600 181.356,188.065 181.200,189.381 181.200 C 190.361 181.200,191.595 181.003,192.125 180.762 C 192.949 180.386,193.236 180.472,194.125 181.362 C 196.055 183.292,198.720 182.464,200.653 179.334 C 201.364 178.183,201.763 179.012,201.931 181.988 C 202.196 186.670,200.657 189.774,196.900 192.140 C 195.124 193.258,194.799 193.871,195.783 194.249 C 196.387 194.480,199.600 193.247,199.600 192.784 C 199.600 192.640,199.971 192.090,200.424 191.561 C 200.878 191.033,201.555 190.240,201.930 189.800 C 203.991 187.381,204.356 175.600,202.370 175.600 C 202.224 175.600,202.006 174.295,201.885 172.700 C 201.464 167.164,200.300 165.091,197.614 165.091 C 196.306 165.091,195.721 164.810,194.391 163.545 C 192.652 161.892,191.846 161.688,190.641 162.600 M175.467 163.067 C 174.892 163.641,175.254 164.702,176.400 165.800 C 177.060 166.432,177.600 167.151,177.600 167.396 C 177.600 168.310,180.370 170.590,180.871 170.089 C 181.231 169.729,181.184 169.445,180.671 168.878 C 180.302 168.470,180.000 167.836,180.000 167.469 C 180.000 167.101,179.775 166.799,179.500 166.797 C 179.225 166.796,178.550 166.121,178.001 165.297 C 176.423 162.934,175.985 162.548,175.467 163.067 M99.703 164.455 C 100.171 164.706,101.013 165.336,101.573 165.855 C 102.133 166.375,102.779 166.800,103.008 166.800 C 103.236 166.800,103.683 167.160,104.000 167.600 C 104.317 168.040,104.762 168.400,104.988 168.400 C 105.215 168.401,105.940 168.866,106.600 169.435 C 107.260 170.004,108.281 170.754,108.869 171.102 C 112.058 172.992,111.792 179.540,108.524 179.587 C 108.042 179.594,107.534 179.783,107.396 180.006 C 107.258 180.230,106.241 180.381,105.136 180.342 C 103.850 180.296,103.011 180.458,102.805 180.792 C 101.759 182.485,97.004 180.237,94.704 176.961 C 90.066 170.357,93.708 161.247,99.703 164.455 M199.222 167.840 C 201.147 171.438,199.185 180.400,196.471 180.400 C 194.140 180.400,194.196 175.719,196.630 167.300 C 196.897 166.377,198.632 166.739,199.222 167.840 M96.407 167.792 C 96.006 168.274,96.108 168.613,96.958 169.623 C 98.161 171.053,98.252 171.952,97.366 173.666 C 96.646 175.057,97.053 175.827,98.299 175.432 C 100.561 174.714,100.551 170.593,98.280 168.100 C 97.316 167.041,97.064 167.000,96.407 167.792 M101.600 175.400 C 101.097 176.005,101.632 177.200,102.406 177.200 C 102.576 177.200,102.818 176.930,102.945 176.600 C 103.206 175.920,102.871 174.800,102.406 174.800 C 102.237 174.800,101.874 175.070,101.600 175.400 M110.400 188.400 C 112.141 190.160,113.753 191.600,113.983 191.600 C 114.212 191.600,114.400 191.780,114.400 192.000 C 114.400 192.220,114.670 192.400,115.000 192.400 C 115.330 192.400,115.600 192.580,115.600 192.800 C 115.600 193.020,115.870 193.200,116.200 193.200 C 116.530 193.200,116.800 193.380,116.800 193.600 C 116.800 193.820,117.239 194.000,117.776 194.000 C 118.313 194.000,118.864 194.180,119.000 194.400 C 119.136 194.620,119.687 194.800,120.224 194.800 C 120.801 194.800,121.200 195.032,121.200 195.368 C 121.200 196.400,126.651 196.993,130.760 196.408 C 134.297 195.904,133.891 195.567,134.228 199.284 C 134.495 202.235,134.109 203.600,133.006 203.600 C 132.869 203.600,131.696 204.680,130.400 206.000 C 127.593 208.860,127.351 208.891,122.489 207.013 C 118.921 205.635,112.325 203.913,108.708 203.414 C 107.255 203.214,106.444 202.795,105.208 201.608 L 103.600 200.063 103.600 196.231 C 103.600 192.704,103.662 192.400,104.377 192.400 C 105.712 192.400,106.400 190.874,106.400 187.911 C 106.400 184.479,106.538 184.496,110.400 188.400 M72.043 208.149 C 71.324 209.015,72.419 209.855,74.680 210.173 C 78.812 210.754,79.048 210.932,80.880 214.832 C 82.615 218.525,84.000 219.661,84.000 217.390 C 84.000 213.717,80.166 209.129,76.524 208.443 C 75.026 208.161,73.510 207.852,73.156 207.756 C 72.803 207.660,72.301 207.837,72.043 208.149 M66.406 211.196 C 65.546 211.728,66.193 212.569,68.254 213.601 C 69.324 214.136,70.634 214.850,71.164 215.187 C 71.695 215.524,72.955 216.070,73.964 216.400 C 76.066 217.087,76.569 218.296,75.332 219.693 C 74.604 220.516,74.608 220.519,76.150 220.277 C 78.087 219.973,78.280 219.781,77.524 218.902 C 77.191 218.516,76.506 217.448,76.002 216.530 C 75.235 215.131,74.526 214.578,71.643 213.134 C 67.087 210.850,67.011 210.822,66.406 211.196 M66.163 220.100 C 65.227 221.184,63.527 223.600,63.700 223.600 C 63.767 223.600,65.078 223.065,66.612 222.411 C 68.145 221.757,69.715 221.217,70.100 221.211 C 71.343 221.192,70.846 220.526,69.087 219.854 C 66.948 219.038,67.090 219.026,66.163 220.100 M26.700 233.093 C 27.635 233.177,29.165 233.177,30.100 233.093 C 31.035 233.009,30.270 232.940,28.400 232.940 C 26.530 232.940,25.765 233.009,26.700 233.093 M163.060 237.429 L 161.919 238.859 164.104 242.143 C 166.788 246.176,167.600 247.717,167.600 248.781 L 167.600 249.602 94.500 249.501 L 21.400 249.400 21.089 246.800 C 20.918 245.370,20.632 242.940,20.454 241.400 C 20.248 239.621,20.106 245.545,20.065 257.648 C 19.992 278.915,20.125 280.472,22.640 288.000 C 28.663 306.029,44.593 319.717,63.352 322.982 C 68.759 323.923,343.241 323.923,348.648 322.982 C 367.470 319.706,383.328 306.044,389.403 287.869 C 391.726 280.922,392.000 278.310,392.000 263.148 L 392.000 249.600 304.800 249.600 C 209.753 249.600,215.782 249.455,218.600 251.671 C 220.713 253.334,218.689 253.598,215.827 252.034 C 215.152 251.665,213.790 251.115,212.800 250.812 C 211.810 250.509,210.829 250.112,210.620 249.930 C 209.687 249.119,192.894 249.554,190.896 250.442 C 188.339 251.577,184.143 253.523,182.262 254.446 C 181.416 254.861,180.671 255.200,180.607 255.200 C 180.542 255.200,180.165 254.004,179.770 252.543 C 179.270 250.698,178.829 249.828,178.325 249.696 C 177.794 249.558,177.598 249.117,177.594 248.053 C 177.583 245.432,177.077 245.328,175.192 247.564 C 173.220 249.902,171.600 250.364,171.600 248.587 C 171.600 246.996,170.588 244.937,167.528 240.300 C 164.282 235.381,164.554 235.556,163.060 237.429 " stroke="none" fill="#141423" fill-rule="evenodd"></path><path id="path3" d="M140.321 99.099 C 142.588 99.170,146.188 99.170,148.321 99.098 C 150.455 99.026,148.600 98.968,144.200 98.968 C 139.800 98.968,138.055 99.027,140.321 99.099 M298.700 99.096 C 300.075 99.174,302.325 99.174,303.700 99.096 C 305.075 99.018,303.950 98.954,301.200 98.954 C 298.450 98.954,297.325 99.018,298.700 99.096 M342.300 99.882 C 342.795 99.978,343.605 99.978,344.100 99.882 C 344.595 99.787,344.190 99.709,343.200 99.709 C 342.210 99.709,341.805 99.787,342.300 99.882 M371.000 109.014 C 369.995 109.498,369.963 109.553,370.800 109.351 C 371.350 109.219,371.971 108.950,372.180 108.755 C 372.698 108.271,372.414 108.333,371.000 109.014 M373.297 109.626 C 373.734 110.343,373.675 110.554,372.856 111.226 C 372.336 111.652,372.083 112.000,372.294 112.000 C 373.089 112.000,374.073 110.460,373.809 109.629 C 373.664 109.173,373.377 108.800,373.170 108.800 C 372.963 108.800,373.020 109.172,373.297 109.626 M64.800 114.600 C 64.250 114.914,63.980 115.172,64.200 115.172 C 64.420 115.172,65.050 114.914,65.600 114.600 C 66.150 114.286,66.420 114.028,66.200 114.028 C 65.980 114.028,65.350 114.286,64.800 114.600 M62.358 115.749 C 60.842 116.539,58.160 118.400,58.535 118.400 C 58.712 118.400,59.641 117.860,60.600 117.200 C 61.559 116.540,62.526 116.000,62.748 116.000 C 62.971 116.000,63.264 115.820,63.400 115.600 C 63.721 115.080,63.608 115.097,62.358 115.749 M56.800 119.800 C 56.283 120.350,55.990 120.800,56.148 120.800 C 56.307 120.800,56.886 120.350,57.436 119.800 C 57.986 119.250,58.280 118.800,58.088 118.800 C 57.896 118.800,57.317 119.250,56.800 119.800 M144.363 119.500 C 159.988 119.582,165.080 119.727,165.563 120.104 C 166.127 120.543,166.137 120.519,165.651 119.900 C 165.139 119.247,163.710 119.206,144.451 119.296 L 123.800 119.393 144.363 119.500 M211.062 119.931 C 210.698 120.334,210.400 120.804,210.400 120.976 C 210.400 121.148,210.715 120.907,211.100 120.441 C 211.794 119.602,211.979 119.593,231.600 119.493 L 251.400 119.392 231.562 119.296 C 212.783 119.205,211.689 119.239,211.062 119.931 M78.500 119.997 C 78.885 120.240,79.200 120.782,79.200 121.200 C 79.200 121.618,78.885 122.160,78.500 122.403 C 78.094 122.660,78.040 122.785,78.371 122.699 C 79.324 122.454,79.856 121.295,79.369 120.524 C 79.135 120.152,78.686 119.781,78.371 119.701 C 78.040 119.615,78.094 119.740,78.500 119.997 M100.880 120.080 C 99.987 120.973,100.602 122.822,101.780 122.788 C 102.011 122.781,101.885 122.592,101.500 122.368 C 101.115 122.144,100.800 121.618,100.800 121.200 C 100.800 120.782,101.115 120.256,101.500 120.032 C 101.885 119.808,102.011 119.619,101.780 119.612 C 101.549 119.605,101.144 119.816,100.880 120.080 M53.333 123.900 C 49.026 128.849,44.582 134.400,44.927 134.400 C 45.033 134.400,46.837 132.285,48.934 129.700 C 51.032 127.115,53.494 124.145,54.405 123.100 C 55.317 122.055,55.977 121.200,55.872 121.200 C 55.768 121.200,54.625 122.415,53.333 123.900 M62.989 123.223 C 56.546 126.503,52.295 130.850,46.309 140.281 C 44.076 143.798,45.665 141.836,48.877 137.109 C 53.912 129.700,57.323 126.489,63.433 123.409 C 65.395 122.421,66.815 121.609,66.589 121.606 C 66.363 121.603,64.743 122.330,62.989 123.223 M123.700 122.699 C 126.285 122.768,130.515 122.768,133.100 122.699 C 135.685 122.629,133.570 122.572,128.400 122.572 C 123.230 122.572,121.115 122.629,123.700 122.699 M253.113 122.695 C 254.276 122.776,256.076 122.776,257.113 122.693 C 258.151 122.611,257.200 122.545,255.000 122.546 C 252.800 122.547,251.951 122.614,253.113 122.695 M63.300 126.442 C 62.145 127.115,61.200 127.754,61.200 127.862 C 61.200 128.023,65.390 125.801,65.967 125.335 C 66.693 124.748,65.000 125.451,63.300 126.442 M56.834 131.500 C 54.896 133.425,53.098 135.450,52.839 136.000 C 52.510 136.700,52.695 136.579,53.455 135.600 C 54.052 134.830,55.965 132.805,57.706 131.100 C 59.447 129.395,60.755 128.000,60.614 128.000 C 60.473 128.000,58.772 129.575,56.834 131.500 M142.011 132.867 C 142.005 133.014,142.720 133.884,143.601 134.801 C 144.481 135.717,145.467 136.846,145.791 137.309 C 146.116 137.773,146.490 138.044,146.622 137.912 C 146.754 137.779,145.773 136.530,144.442 135.136 C 143.111 133.741,142.018 132.720,142.011 132.867 M42.532 137.300 C 41.178 138.809,36.637 144.948,37.074 144.678 C 37.300 144.538,38.864 142.619,40.551 140.412 C 43.503 136.552,44.233 135.404,42.532 137.300 M50.000 140.200 C 48.887 141.850,48.066 143.200,48.176 143.200 C 48.286 143.200,49.287 141.850,50.400 140.200 C 51.513 138.550,52.334 137.200,52.224 137.200 C 52.114 137.200,51.113 138.550,50.000 140.200 M42.310 146.088 C 39.207 150.647,39.111 150.800,39.370 150.800 C 39.485 150.800,40.709 149.140,42.090 147.112 C 45.193 142.553,45.289 142.400,45.030 142.400 C 44.915 142.400,43.691 144.060,42.310 146.088 M391.740 146.400 C 391.740 148.270,391.809 149.035,391.893 148.100 C 391.977 147.165,391.977 145.635,391.893 144.700 C 391.809 143.765,391.740 144.530,391.740 146.400 M45.110 147.288 C 42.007 151.847,41.911 152.000,42.170 152.000 C 42.285 152.000,43.509 150.340,44.890 148.312 C 47.993 143.753,48.089 143.600,47.830 143.600 C 47.715 143.600,46.491 145.260,45.110 147.288 M149.301 145.400 C 149.305 146.280,149.387 146.593,149.483 146.095 C 149.579 145.598,149.575 144.878,149.475 144.495 C 149.375 144.113,149.296 144.520,149.301 145.400 M35.375 146.668 C 34.759 147.476,34.459 148.011,34.709 147.856 C 35.221 147.540,36.953 145.200,36.675 145.200 C 36.576 145.200,35.991 145.861,35.375 146.668 M32.975 149.868 C 32.359 150.676,32.059 151.211,32.309 151.056 C 32.821 150.740,34.553 148.400,34.275 148.400 C 34.176 148.400,33.591 149.061,32.975 149.868 M186.752 152.087 C 186.937 153.198,186.993 153.255,187.119 152.454 C 187.201 151.933,187.103 151.343,186.901 151.141 C 186.679 150.919,186.621 151.293,186.752 152.087 M35.354 156.300 C 33.437 159.105,31.304 162.210,30.614 163.200 C 28.986 165.534,28.710 166.000,28.953 166.000 C 29.064 166.000,31.189 163.022,33.677 159.382 C 36.165 155.743,38.447 152.413,38.749 151.982 C 39.051 151.552,39.194 151.200,39.068 151.200 C 38.941 151.200,37.270 153.495,35.354 156.300 M29.425 154.700 C 28.176 156.405,27.682 157.203,28.328 156.474 C 29.728 154.892,32.123 151.600,31.873 151.600 C 31.776 151.600,30.675 152.995,29.425 154.700 M40.719 153.700 C 39.488 155.340,39.097 156.000,39.357 156.000 C 39.470 156.000,40.119 155.190,40.800 154.200 C 42.227 152.126,42.169 151.769,40.719 153.700 M129.905 155.229 C 128.360 156.129,128.066 158.833,129.455 159.366 C 129.945 159.554,129.939 159.448,129.419 158.706 C 128.570 157.494,128.634 157.075,129.855 155.855 C 130.987 154.722,130.998 154.593,129.905 155.229 M117.091 156.289 C 117.801 156.377,119.061 156.379,119.891 156.292 C 120.721 156.205,120.140 156.133,118.600 156.131 C 117.060 156.129,116.381 156.200,117.091 156.289 M37.148 158.900 C 36.222 160.275,34.644 162.561,33.640 163.981 C 32.636 165.401,32.021 166.434,32.275 166.277 C 32.806 165.949,39.340 156.400,39.033 156.400 C 38.921 156.400,38.073 157.525,37.148 158.900 M149.254 158.096 C 149.225 158.698,148.840 160.138,148.400 161.296 C 147.548 163.537,147.364 164.587,147.996 163.600 C 148.734 162.449,149.670 158.913,149.490 157.960 C 149.320 157.059,149.306 157.067,149.254 158.096 M25.930 159.300 C 23.399 162.708,21.949 164.800,22.117 164.800 C 22.294 164.800,26.314 159.556,26.947 158.500 C 27.546 157.502,26.871 158.032,25.930 159.300 M187.580 160.510 C 187.775 162.158,187.783 162.167,187.919 160.849 C 187.996 160.106,187.906 159.346,187.720 159.160 C 187.533 158.973,187.471 159.581,187.580 160.510 M110.812 160.526 C 110.787 161.196,111.602 162.314,112.289 162.554 C 112.920 162.774,112.929 162.745,112.371 162.301 C 112.025 162.025,111.535 161.440,111.283 161.000 C 111.031 160.560,110.819 160.347,110.812 160.526 M116.900 161.476 C 117.285 161.576,117.915 161.576,118.300 161.476 C 118.685 161.375,118.370 161.293,117.600 161.293 C 116.830 161.293,116.515 161.375,116.900 161.476 M190.400 162.233 C 189.685 162.630,189.593 162.790,190.076 162.794 C 190.448 162.797,190.864 162.620,191.000 162.400 C 191.502 161.587,192.812 162.043,194.448 163.600 C 195.373 164.480,196.416 165.186,196.765 165.168 C 197.308 165.141,197.313 165.103,196.800 164.902 C 196.470 164.773,195.745 164.203,195.189 163.634 C 193.197 161.596,192.118 161.280,190.400 162.233 M175.280 162.880 C 175.016 163.144,174.811 163.639,174.825 163.980 C 174.841 164.360,174.991 164.252,175.212 163.700 C 175.575 162.797,176.400 162.450,176.400 163.200 C 176.400 163.420,176.602 163.600,176.849 163.600 C 177.159 163.600,177.144 163.415,176.800 163.000 C 176.198 162.274,175.908 162.252,175.280 162.880 M177.547 164.600 C 178.301 165.973,179.135 166.889,179.494 166.742 C 179.684 166.664,179.225 165.970,178.473 165.200 C 177.722 164.430,177.305 164.160,177.547 164.600 M176.229 166.081 C 176.857 166.896,177.458 167.475,177.565 167.369 C 177.672 167.262,177.158 166.595,176.423 165.887 L 175.087 164.600 176.229 166.081 M27.519 167.700 C 26.288 169.340,25.897 170.000,26.157 170.000 C 26.270 170.000,26.919 169.190,27.600 168.200 C 29.027 166.126,28.969 165.769,27.519 167.700 M200.598 166.749 C 200.768 167.051,201.149 168.131,201.444 169.149 L 201.980 171.000 201.751 169.200 C 201.625 168.210,201.244 167.130,200.904 166.800 C 200.467 166.375,200.378 166.360,200.598 166.749 M29.110 170.488 C 26.007 175.047,25.911 175.200,26.170 175.200 C 26.285 175.200,27.509 173.540,28.890 171.512 C 31.993 166.953,32.089 166.800,31.830 166.800 C 31.715 166.800,30.491 168.460,29.110 170.488 M147.731 169.800 C 147.733 171.340,147.805 171.921,147.892 171.091 C 147.979 170.261,147.977 169.001,147.889 168.291 C 147.800 167.581,147.729 168.260,147.731 169.800 M180.000 167.938 C 180.000 168.124,180.388 168.619,180.862 169.038 L 181.724 169.800 181.016 168.700 C 180.286 167.566,180.000 167.351,180.000 167.938 M121.505 168.283 C 122.002 168.379,122.722 168.375,123.105 168.275 C 123.487 168.175,123.080 168.096,122.200 168.101 C 121.320 168.105,121.007 168.187,121.505 168.283 M178.428 169.073 C 179.591 170.595,180.380 170.993,180.967 170.354 C 181.286 170.006,181.260 169.962,180.865 170.186 C 180.524 170.380,179.810 170.003,178.893 169.145 L 177.455 167.800 178.428 169.073 M92.509 170.400 C 92.509 171.390,92.587 171.795,92.682 171.300 C 92.778 170.805,92.778 169.995,92.682 169.500 C 92.587 169.005,92.509 169.410,92.509 170.400 M115.900 169.082 C 116.395 169.178,117.205 169.178,117.700 169.082 C 118.195 168.987,117.790 168.909,116.800 168.909 C 115.810 168.909,115.405 168.987,115.900 169.082 M108.200 170.965 C 108.860 171.532,109.565 171.997,109.767 171.998 C 110.201 172.000,110.196 171.996,108.400 170.837 L 107.000 169.934 108.200 170.965 M23.600 173.400 C 22.487 175.050,21.666 176.400,21.776 176.400 C 21.886 176.400,22.887 175.050,24.000 173.400 C 25.113 171.750,25.934 170.400,25.824 170.400 C 25.714 170.400,24.713 171.750,23.600 173.400 M193.429 171.829 C 193.281 172.415,193.238 172.972,193.332 173.066 C 193.427 173.160,193.624 172.758,193.771 172.171 C 193.919 171.585,193.962 171.028,193.868 170.934 C 193.773 170.840,193.576 171.242,193.429 171.829 M24.391 177.500 C 23.333 179.111,23.302 179.218,24.191 178.200 C 25.324 176.903,26.147 175.600,25.833 175.600 C 25.726 175.600,25.077 176.455,24.391 177.500 M203.026 177.200 C 203.731 180.948,203.904 181.512,203.948 180.200 C 203.970 179.540,203.712 178.280,203.376 177.400 C 202.765 175.804,202.764 175.803,203.026 177.200 M20.911 177.300 C 20.129 178.311,19.863 178.932,20.336 178.640 C 20.810 178.347,21.757 176.800,21.463 176.800 C 21.372 176.800,21.124 177.025,20.911 177.300 M96.000 178.600 C 96.746 179.370,97.447 180.000,97.557 180.000 C 97.667 180.000,97.146 179.370,96.400 178.600 C 95.654 177.830,94.953 177.200,94.843 177.200 C 94.733 177.200,95.254 177.830,96.000 178.600 M110.028 178.566 C 109.761 178.888,109.150 179.228,108.671 179.322 C 107.891 179.473,107.883 179.495,108.600 179.533 C 109.454 179.577,111.085 178.552,110.728 178.194 C 110.610 178.077,110.295 178.244,110.028 178.566 M197.656 179.634 C 197.136 180.055,196.924 180.400,197.184 180.400 C 197.697 180.400,198.989 179.255,198.748 179.015 C 198.666 178.935,198.175 179.213,197.656 179.634 M22.178 180.425 C 21.723 180.927,21.129 181.170,20.658 181.047 C 20.121 180.907,20.012 180.972,20.302 181.262 C 20.869 181.829,22.308 181.320,22.814 180.373 C 23.350 179.372,23.113 179.391,22.178 180.425 M105.105 180.283 C 105.602 180.379,106.322 180.375,106.705 180.275 C 107.087 180.175,106.680 180.096,105.800 180.101 C 104.920 180.105,104.607 180.187,105.105 180.283 M147.800 182.000 C 147.646 182.910,147.604 183.738,147.707 183.840 C 147.810 183.943,148.013 183.277,148.160 182.360 C 148.307 181.443,148.348 180.615,148.253 180.520 C 148.158 180.424,147.954 181.090,147.800 182.000 M189.300 181.476 C 189.685 181.576,190.315 181.576,190.700 181.476 C 191.085 181.375,190.770 181.293,190.000 181.293 C 189.230 181.293,188.915 181.375,189.300 181.476 M171.467 182.267 C 171.100 182.633,171.129 186.309,171.500 186.538 C 171.665 186.640,171.800 185.661,171.800 184.362 C 171.800 183.063,171.785 182.000,171.767 182.000 C 171.748 182.000,171.613 182.120,171.467 182.267 M146.339 186.300 C 145.845 187.345,145.358 188.377,145.256 188.593 C 145.155 188.809,145.325 188.719,145.636 188.393 C 146.206 187.793,146.941 186.383,147.351 185.100 C 147.778 183.763,147.232 184.411,146.339 186.300 M203.534 185.600 C 203.396 186.370,203.158 187.450,203.005 188.000 C 202.761 188.876,202.807 188.853,203.382 187.817 C 203.743 187.167,203.981 186.087,203.911 185.417 L 203.784 184.200 203.534 185.600 M106.501 187.800 C 106.505 188.680,106.587 188.993,106.683 188.495 C 106.779 187.998,106.775 187.278,106.675 186.895 C 106.575 186.513,106.496 186.920,106.501 187.800 M190.000 189.776 C 190.000 190.533,190.138 191.238,190.307 191.343 C 190.476 191.447,190.548 190.828,190.465 189.966 C 190.281 188.032,190.000 187.918,190.000 189.776 M143.200 190.800 C 142.430 191.660,141.575 192.371,141.300 192.382 C 141.025 192.392,140.800 192.580,140.800 192.800 C 140.800 193.020,140.530 193.200,140.200 193.200 C 139.870 193.200,139.600 193.380,139.600 193.600 C 139.600 193.820,139.240 194.000,138.800 194.000 C 138.360 194.000,138.000 194.174,138.000 194.387 C 138.000 194.928,139.090 194.474,141.200 193.054 C 142.817 191.966,145.200 189.764,145.200 189.358 C 145.200 188.870,144.434 189.422,143.200 190.800 M201.994 189.500 C 201.990 189.665,201.450 190.409,200.794 191.154 C 200.137 191.899,199.621 192.889,199.646 193.354 C 199.691 194.163,199.702 194.165,199.893 193.400 C 200.003 192.960,200.703 191.924,201.447 191.099 C 202.191 190.273,202.800 189.508,202.800 189.399 C 202.800 189.073,202.001 189.174,201.994 189.500 M182.529 201.293 C 182.553 202.335,182.718 203.042,182.895 202.865 C 183.072 202.688,183.052 201.836,182.851 200.971 L 182.485 199.400 182.529 201.293 M78.100 200.691 C 78.925 200.778,80.275 200.778,81.100 200.691 C 81.925 200.605,81.250 200.534,79.600 200.534 C 77.950 200.534,77.275 200.605,78.100 200.691 M179.358 203.766 C 179.238 204.078,179.217 204.843,179.310 205.466 C 179.456 206.437,179.489 206.388,179.540 205.127 C 179.592 203.845,179.743 203.631,180.700 203.487 L 181.800 203.320 180.687 203.260 C 180.051 203.226,179.482 203.442,179.358 203.766 M94.040 205.781 C 96.562 208.617,97.599 210.244,97.646 211.438 C 97.676 212.174,97.762 212.332,97.882 211.868 C 98.249 210.446,97.549 209.142,95.089 206.666 C 93.720 205.288,93.248 204.890,94.040 205.781 M128.086 207.424 C 126.880 208.712,127.747 208.690,129.036 207.400 C 129.586 206.850,129.803 206.411,129.518 206.424 C 129.233 206.438,128.589 206.888,128.086 207.424 M86.033 206.900 C 86.125 206.955,86.740 207.450,87.400 208.000 L 88.600 209.000 87.630 207.900 C 87.097 207.295,86.482 206.800,86.264 206.800 C 86.045 206.800,85.942 206.845,86.033 206.900 M180.109 210.400 C 180.109 211.390,180.187 211.795,180.282 211.300 C 180.378 210.805,180.378 209.995,180.282 209.500 C 180.187 209.005,180.109 209.410,180.109 210.400 M96.000 212.800 L 95.000 213.120 96.100 213.160 C 96.705 213.182,97.200 213.020,97.200 212.800 C 97.200 212.580,97.155 212.418,97.100 212.440 C 97.045 212.462,96.550 212.624,96.000 212.800 M180.688 214.600 C 180.811 215.920,180.976 217.075,181.056 217.167 C 181.335 217.489,181.116 214.188,180.793 213.200 C 180.589 212.579,180.549 213.109,180.688 214.600 M135.665 216.790 C 132.149 217.112,130.569 217.852,129.805 219.531 C 129.588 220.009,129.297 220.400,129.159 220.400 C 128.704 220.400,129.451 223.367,130.342 225.100 C 130.823 226.035,131.148 226.800,131.066 226.800 C 130.983 226.800,129.218 225.906,127.143 224.814 C 119.652 220.871,119.064 220.734,108.400 220.465 C 95.761 220.145,91.356 220.149,83.800 220.484 C 80.280 220.641,77.625 220.671,77.900 220.551 C 78.902 220.115,78.369 219.632,77.325 220.029 C 76.733 220.254,75.878 220.402,75.425 220.359 C 74.971 220.316,74.279 220.419,73.888 220.588 C 73.496 220.757,72.641 220.788,71.988 220.658 C 71.320 220.524,70.800 220.591,70.800 220.810 C 70.800 221.024,70.517 221.200,70.172 221.200 C 69.153 221.200,63.429 223.687,63.070 224.286 C 62.888 224.589,61.808 225.258,60.670 225.774 C 58.966 226.545,49.628 230.955,46.600 232.418 C 46.151 232.635,40.178 232.852,33.000 232.911 L 20.200 233.018 20.083 234.609 C 19.978 236.055,20.361 240.668,21.115 247.000 L 21.400 249.400 94.500 249.501 L 167.600 249.602 167.600 248.781 C 167.600 247.717,166.788 246.176,164.104 242.143 L 161.919 238.859 163.060 237.429 C 164.554 235.556,164.282 235.381,167.528 240.300 C 170.588 244.937,171.600 246.996,171.600 248.587 C 171.600 250.364,173.220 249.902,175.192 247.564 C 177.077 245.328,177.583 245.432,177.594 248.053 C 177.598 249.117,177.794 249.558,178.325 249.696 C 178.829 249.828,179.270 250.698,179.770 252.543 C 180.165 254.004,180.542 255.200,180.607 255.200 C 180.671 255.200,181.416 254.861,182.262 254.446 C 184.143 253.523,188.339 251.577,190.896 250.442 C 192.894 249.554,209.687 249.119,210.620 249.930 C 210.829 250.112,211.810 250.509,212.800 250.812 C 213.790 251.115,215.152 251.665,215.827 252.034 C 218.689 253.598,220.713 253.334,218.600 251.671 C 215.785 249.457,209.753 249.609,304.900 249.505 C 352.915 249.452,385.135 249.360,376.500 249.300 L 360.800 249.191 360.800 242.254 L 360.800 235.318 356.597 235.046 C 353.062 234.818,209.463 234.629,174.774 234.807 L 163.748 234.864 162.514 232.132 C 161.836 230.629,161.059 228.680,160.787 227.800 C 158.087 219.055,149.932 215.480,135.665 216.790 M61.301 221.800 C 61.305 222.680,61.387 222.993,61.483 222.495 C 61.579 221.998,61.575 221.278,61.475 220.895 C 61.375 220.513,61.296 220.920,61.301 221.800 " stroke="none" fill="#1c553c" fill-rule="evenodd"></path><path id="path4" d="M78.471 156.291 C 76.539 156.529,75.329 157.798,74.598 160.355 C 74.245 161.590,73.792 163.140,73.592 163.800 C 72.296 168.073,72.764 172.435,74.529 172.539 C 75.240 172.581,75.634 172.881,75.789 173.500 C 75.913 173.995,76.170 174.400,76.359 174.400 C 76.548 174.400,76.927 174.940,77.200 175.600 C 77.473 176.260,77.833 176.800,78.000 176.800 C 78.167 176.800,78.527 177.340,78.800 178.000 C 79.073 178.660,79.428 179.200,79.588 179.200 C 79.748 179.200,80.215 179.946,80.626 180.859 C 81.038 181.771,81.573 182.716,81.815 182.959 C 82.738 183.883,89.620 198.044,89.355 198.473 C 89.198 198.727,89.254 198.814,89.484 198.672 C 89.712 198.531,90.456 199.647,91.177 201.210 C 91.884 202.745,92.712 204.000,93.017 204.000 C 93.902 204.000,101.787 203.098,101.929 202.981 C 102.081 202.857,100.804 200.295,100.444 200.000 C 100.193 199.794,99.532 198.686,98.429 196.624 C 97.762 195.376,97.311 194.719,96.500 193.815 C 96.225 193.508,96.000 192.974,96.000 192.629 C 96.000 192.283,95.832 192.000,95.627 192.000 C 95.422 192.000,95.140 191.641,95.001 191.202 C 94.862 190.764,94.534 190.179,94.274 189.902 C 94.013 189.626,93.363 188.590,92.830 187.600 C 92.296 186.610,91.752 185.710,91.620 185.600 C 91.488 185.490,90.935 184.545,90.391 183.500 C 89.847 182.455,89.297 181.600,89.169 181.600 C 89.041 181.600,88.515 180.700,88.000 179.600 C 87.485 178.500,86.936 177.600,86.780 177.600 C 86.624 177.600,86.273 177.060,86.000 176.400 C 85.727 175.740,85.374 175.200,85.216 175.200 C 85.058 175.200,84.723 174.750,84.473 174.200 C 84.078 173.334,84.114 173.200,84.742 173.200 C 86.009 173.200,85.963 172.829,84.164 168.535 C 82.356 164.221,81.046 160.152,80.610 157.500 C 80.475 156.675,80.237 156.029,80.082 156.064 C 79.927 156.099,79.202 156.202,78.471 156.291 M101.000 212.364 C 95.903 212.740,96.011 212.505,98.441 217.926 C 98.867 218.875,99.128 219.792,99.022 219.964 C 98.824 220.285,112.787 220.946,113.103 220.630 C 113.201 220.533,112.887 220.036,112.406 219.526 C 111.925 219.017,111.252 218.060,110.910 217.400 C 110.568 216.740,110.177 216.110,110.040 216.000 C 109.904 215.890,109.434 215.110,108.996 214.267 C 107.916 212.186,106.847 211.932,101.000 212.364 " stroke="none" fill="#0a14cc" fill-rule="evenodd"></path>
</g>
</svg>